<?xml version="1.0" encoding="UTF-8" standalone="no"?><svg xmlns="http://www.w3.org/2000/svg" xmlns:xlink="http://www.w3.org/1999/xlink" contentScriptType="application/ecmascript" contentStyleType="text/css" height="535px" preserveAspectRatio="none" style="width:381px;height:535px;" version="1.1" viewBox="0 0 381 535" width="381px" zoomAndPan="magnify"><defs><filter height="300%" id="f1dcvqf22u8a9j" width="300%" x="-1" y="-1"><feGaussianBlur result="blurOut" stdDeviation="2.0"/><feColorMatrix in="blurOut" result="blurOut2" type="matrix" values="0 0 0 0 0 0 0 0 0 0 0 0 0 0 0 0 0 0 .4 0"/><feOffset dx="4.0" dy="4.0" in="blurOut2" result="blurOut3"/><feBlend in="SourceGraphic" in2="blurOut3" mode="normal"/></filter></defs><g><!--MD5=[66a97758baf50dff5c8e5e3d0421e86e]
cluster Colaborador--><polygon fill="#DDDDDD" filter="url(#f1dcvqf22u8a9j)" points="16,6,109,6,116,29.6094,364,29.6094,364,299,16,299,16,6" style="stroke:#000000;stroke-width:1.5;"/><line style="stroke:#000000;stroke-width:1.5;" x1="16" x2="116" y1="29.6094" y2="29.6094"/><text fill="#000000" font-family="sans-serif" font-size="14" font-weight="bold" lengthAdjust="spacing" textLength="87" x="20" y="22.5332">Colaborador</text><text fill="#000000" font-family="sans-serif" font-size="14" font-style="italic" lengthAdjust="spacing" textLength="81" x="153.5" y="46.1426">«aggregate»</text><!--MD5=[ab5253a9f58e7de5894d107ec8cc6b2a]
cluster Funcao--><polygon fill="#DDDDDD" filter="url(#f1dcvqf22u8a9j)" points="25,357,83,357,90,380.6094,220,380.6094,220,528,25,528,25,357" style="stroke:#000000;stroke-width:1.5;"/><line style="stroke:#000000;stroke-width:1.5;" x1="25" x2="90" y1="380.6094" y2="380.6094"/><text fill="#000000" font-family="sans-serif" font-size="14" font-weight="bold" lengthAdjust="spacing" textLength="52" x="29" y="373.5332">Funcao</text><text fill="#000000" font-family="sans-serif" font-size="14" font-style="italic" lengthAdjust="spacing" textLength="81" x="86" y="397.1426">«aggregate»</text><!--MD5=[ac8682ea5466d223e49472789fb200d2]
class Colaborador--><rect codeLine="4" fill="#FEFECE" filter="url(#f1dcvqf22u8a9j)" height="223.4766" id="Colaborador" style="stroke:#A80036;stroke-width:1.5;" width="200" x="32" y="60"/><ellipse cx="93.25" cy="87.6406" fill="#ADD1B2" rx="11" ry="11" style="stroke:#A80036;stroke-width:1.0;"/><path d="M96.0156,83.5156 Q96.1719,83.2969 96.3594,83.1875 Q96.5469,83.0781 96.7656,83.0781 Q97.1406,83.0781 97.375,83.3438 Q97.6094,83.5938 97.6094,84.2031 L97.6094,85.6563 Q97.6094,86.2656 97.375,86.5313 Q97.1406,86.7969 96.7656,86.7969 Q96.4219,86.7969 96.2188,86.5938 Q96.0156,86.4063 95.9063,85.8906 Q95.8594,85.5313 95.6719,85.3438 Q95.3438,84.9688 94.7344,84.75 Q94.125,84.5313 93.5,84.5313 Q92.7344,84.5313 92.0938,84.8594 Q91.4688,85.1875 90.9688,85.9375 Q90.4844,86.6875 90.4844,87.7188 L90.4844,88.8125 Q90.4844,90.0469 91.375,90.875 Q92.2656,91.6875 93.8594,91.6875 Q94.7969,91.6875 95.4531,91.4375 Q95.8438,91.2813 96.2656,90.8438 Q96.5313,90.5781 96.6719,90.5 Q96.8281,90.4219 97.0313,90.4219 Q97.3594,90.4219 97.6094,90.6875 Q97.875,90.9375 97.875,91.2813 Q97.875,91.625 97.5313,92.0313 Q97.0313,92.6094 96.2344,92.9375 Q95.1563,93.3906 93.8594,93.3906 Q92.3438,93.3906 91.1406,92.7656 Q90.1563,92.2656 89.4688,91.2031 Q88.7813,90.125 88.7813,88.8438 L88.7813,87.6875 Q88.7813,86.3594 89.3906,85.2188 Q90.0156,84.0625 91.1094,83.4531 Q92.2031,82.8281 93.4375,82.8281 Q94.1719,82.8281 94.8125,83 Q95.4688,83.1563 96.0156,83.5156 Z " fill="#000000"/><text fill="#000000" font-family="sans-serif" font-size="12" font-style="italic" lengthAdjust="spacing" textLength="43" x="126.75" y="77.457">«entity»</text><text fill="#000000" font-family="sans-serif" font-size="12" font-style="italic" lengthAdjust="spacing" textLength="35" x="130.75" y="92.5508">«root»</text><text fill="#000000" font-family="sans-serif" font-size="12" lengthAdjust="spacing" textLength="69" x="113.75" y="107.6445">Colaborador</text><line style="stroke:#A80036;stroke-width:1.5;" x1="33" x2="231" y1="115.2813" y2="115.2813"/><text fill="#000000" font-family="sans-serif" font-size="11" lengthAdjust="spacing" textLength="56" x="38" y="130.7002">Nome nome</text><text fill="#000000" font-family="sans-serif" font-size="11" lengthAdjust="spacing" textLength="28" x="38" y="144.5361">Nif nif</text><text fill="#000000" font-family="sans-serif" font-size="11" lengthAdjust="spacing" textLength="32" x="38" y="158.3721">Nib nib</text><text fill="#000000" font-family="sans-serif" font-size="11" lengthAdjust="spacing" textLength="107" x="38" y="172.208">EstadoCivil estadoCivil</text><text fill="#000000" font-family="sans-serif" font-size="11" lengthAdjust="spacing" textLength="114" x="38" y="186.0439">Morada localResidencia</text><text fill="#000000" font-family="sans-serif" font-size="11" lengthAdjust="spacing" textLength="188" x="38" y="199.8799">ContactoTelefonico contactoTelefonico</text><text fill="#000000" font-family="sans-serif" font-size="11" lengthAdjust="spacing" textLength="107" x="38" y="213.7158">Email emailInstitucional</text><text fill="#000000" font-family="sans-serif" font-size="11" lengthAdjust="spacing" textLength="103" x="38" y="227.5518">Password password</text><text fill="#000000" font-family="sans-serif" font-size="11" lengthAdjust="spacing" textLength="102" x="38" y="241.3877">Data dataNascimento</text><text fill="#000000" font-family="sans-serif" font-size="11" lengthAdjust="spacing" textLength="184" x="38" y="255.2236">HabilitacaoLiteraria habilitacaoLiteraria</text><text fill="#000000" font-family="sans-serif" font-size="11" lengthAdjust="spacing" textLength="168" x="38" y="269.0596">NrMecanografico nrMecanografico</text><line style="stroke:#A80036;stroke-width:1.5;" x1="33" x2="231" y1="275.4766" y2="275.4766"/><!--MD5=[b6491c6bfca6d442eeced1751ed765da]
class Funcao--><rect codeLine="24" fill="#FEFECE" filter="url(#f1dcvqf22u8a9j)" height="85.1172" id="Funcao" style="stroke:#A80036;stroke-width:1.5;" width="128" x="68" y="419"/><ellipse cx="107.75" cy="446.6406" fill="#ADD1B2" rx="11" ry="11" style="stroke:#A80036;stroke-width:1.0;"/><path d="M110.5156,442.5156 Q110.6719,442.2969 110.8594,442.1875 Q111.0469,442.0781 111.2656,442.0781 Q111.6406,442.0781 111.875,442.3438 Q112.1094,442.5938 112.1094,443.2031 L112.1094,444.6563 Q112.1094,445.2656 111.875,445.5313 Q111.6406,445.7969 111.2656,445.7969 Q110.9219,445.7969 110.7188,445.5938 Q110.5156,445.4063 110.4063,444.8906 Q110.3594,444.5313 110.1719,444.3438 Q109.8438,443.9688 109.2344,443.75 Q108.625,443.5313 108,443.5313 Q107.2344,443.5313 106.5938,443.8594 Q105.9688,444.1875 105.4688,444.9375 Q104.9844,445.6875 104.9844,446.7188 L104.9844,447.8125 Q104.9844,449.0469 105.875,449.875 Q106.7656,450.6875 108.3594,450.6875 Q109.2969,450.6875 109.9531,450.4375 Q110.3438,450.2813 110.7656,449.8438 Q111.0313,449.5781 111.1719,449.5 Q111.3281,449.4219 111.5313,449.4219 Q111.8594,449.4219 112.1094,449.6875 Q112.375,449.9375 112.375,450.2813 Q112.375,450.625 112.0313,451.0313 Q111.5313,451.6094 110.7344,451.9375 Q109.6563,452.3906 108.3594,452.3906 Q106.8438,452.3906 105.6406,451.7656 Q104.6563,451.2656 103.9688,450.2031 Q103.2813,449.125 103.2813,447.8438 L103.2813,446.6875 Q103.2813,445.3594 103.8906,444.2188 Q104.5156,443.0625 105.6094,442.4531 Q106.7031,441.8281 107.9375,441.8281 Q108.6719,441.8281 109.3125,442 Q109.9688,442.1563 110.5156,442.5156 Z " fill="#000000"/><text fill="#000000" font-family="sans-serif" font-size="12" font-style="italic" lengthAdjust="spacing" textLength="43" x="126.25" y="436.457">«entity»</text><text fill="#000000" font-family="sans-serif" font-size="12" font-style="italic" lengthAdjust="spacing" textLength="35" x="130.25" y="451.5508">«root»</text><text fill="#000000" font-family="sans-serif" font-size="12" lengthAdjust="spacing" textLength="41" x="127.25" y="466.6445">Funcao</text><line style="stroke:#A80036;stroke-width:1.5;" x1="69" x2="195" y1="474.2813" y2="474.2813"/><text fill="#000000" font-family="sans-serif" font-size="11" lengthAdjust="spacing" textLength="116" x="74" y="489.7002">Designacao designacao</text><line style="stroke:#A80036;stroke-width:1.5;" x1="69" x2="195" y1="496.1172" y2="496.1172"/><!--MD5=[6e11fc7dc4f4cce934340b65939f2e4c]
link Colaborador to Funcao--><path codeLine="18" d="M132,283.02 C132,330.61 132,383.37 132,418.89 " fill="none" id="Colaborador-to-Funcao" style="stroke:#A80036;stroke-width:1.0;"/><polygon fill="#A80036" points="132,315,130.1819,324.6796,133.1523,319.8654,137.9665,322.8359,132,315" style="stroke:#A80036;stroke-width:1.0;"/><line style="stroke:#A80036;stroke-width:1.0;" x1="133.1523" x2="170" y1="319.8654" y2="324"/><text fill="#000000" font-family="sans-serif" font-size="13" lengthAdjust="spacing" textLength="74" x="133" y="329.4951">desempenha</text><text fill="#000000" font-family="sans-serif" font-size="13" lengthAdjust="spacing" textLength="20" x="111.2969" y="304.9145">0..*</text><text fill="#000000" font-family="sans-serif" font-size="13" lengthAdjust="spacing" textLength="7" x="124.4203" y="408.0222">1</text><!--MD5=[34472ae4dd91b5280d9be9bc7dc9279f]
link Colaborador to Colaborador--><path codeLine="19" d="M232.09,144.09 C252.43,147.07 267,156.21 267,171.5 C267,185.48 254.83,194.31 237.2,198.01 " fill="none" id="Colaborador-to-Colaborador" style="stroke:#A80036;stroke-width:1.0;"/><polygon fill="#A80036" points="232.09,198.91,241.6502,201.2771,237.0132,198.037,240.2533,193.4,232.09,198.91" style="stroke:#A80036;stroke-width:1.0;"/><text fill="#000000" font-family="sans-serif" font-size="13" lengthAdjust="spacing" textLength="86" x="273" y="176.9951">responsavel de</text><text fill="#000000" font-family="sans-serif" font-size="13" lengthAdjust="spacing" textLength="22" x="239.901" y="139.091">0..1</text><text fill="#000000" font-family="sans-serif" font-size="13" lengthAdjust="spacing" textLength="20" x="239.8307" y="197.7655">1..*</text><!--MD5=[770b45b52ba0d1274a65925f61381e0e]
@startuml

package "Colaborador" <<aggregate>> #DDDDDD {

    class Colaborador <<entity>> <<root>> {
        Nome nome
        Nif nif
        Nib nib
        EstadoCivil estadoCivil
        Morada localResidencia
        ContactoTelefonico contactoTelefonico
        Email emailInstitucional
        Password password
        Data dataNascimento
        HabilitacaoLiteraria habilitacaoLiteraria
        NrMecanografico nrMecanografico
    }    

    Colaborador "0..*" - -> "1" Funcao : "desempenha"
    Colaborador "0..1" - -> "1..*" Colaborador : "responsavel de"
}

package "Funcao" <<aggregate>> #DDDDDD {

    class Funcao <<entity>> <<root>>{
        Designacao designacao
    }
}

@enduml

PlantUML version 1.2021.00(Sun Jan 10 10:25:05 WET 2021)
(GPL source distribution)
Java Runtime: Java(TM) SE Runtime Environment
JVM: Java HotSpot(TM) 64-Bit Server VM
Default Encoding: Cp1252
Language: pt
Country: PT
--></g></svg>