<?xml version="1.0" encoding="UTF-8" standalone="no"?><svg xmlns="http://www.w3.org/2000/svg" xmlns:xlink="http://www.w3.org/1999/xlink" contentScriptType="application/ecmascript" contentStyleType="text/css" height="718px" preserveAspectRatio="none" style="width:1337px;height:718px;" version="1.1" viewBox="0 0 1337 718" width="1337px" zoomAndPan="magnify"><defs><filter height="300%" id="fad2hqqbyhlyq" width="300%" x="-1" y="-1"><feGaussianBlur result="blurOut" stdDeviation="2.0"/><feColorMatrix in="blurOut" result="blurOut2" type="matrix" values="0 0 0 0 0 0 0 0 0 0 0 0 0 0 0 0 0 0 .4 0"/><feOffset dx="4.0" dy="4.0" in="blurOut2" result="blurOut3"/><feBlend in="SourceGraphic" in2="blurOut3" mode="normal"/></filter></defs><g><!--MD5=[9dee791ec475bfddcd57524b502d824d]
cluster Utilizador--><polygon fill="#DDDDDD" filter="url(#fad2hqqbyhlyq)" points="676,19,756,19,763,41.2969,796,41.2969,796,154,676,154,676,19" style="stroke:#000000;stroke-width:1.5;"/><line style="stroke:#000000;stroke-width:1.5;" x1="676" x2="763" y1="41.2969" y2="41.2969"/><text fill="#000000" font-family="sans-serif" font-size="14" font-weight="bold" lengthAdjust="spacing" textLength="74" x="680" y="33.9951">Utilizador</text><text fill="#000000" font-family="sans-serif" font-size="14" font-style="italic" lengthAdjust="spacing" textLength="89" x="695.5" y="56.292">«aggregate»</text><!--MD5=[66a97758baf50dff5c8e5e3d0421e86e]
cluster Colaborador--><polygon fill="#DDDDDD" filter="url(#fad2hqqbyhlyq)" points="232,214,335,214,342,236.2969,624,236.2969,624,490,232,490,232,214" style="stroke:#000000;stroke-width:1.5;"/><line style="stroke:#000000;stroke-width:1.5;" x1="232" x2="342" y1="236.2969" y2="236.2969"/><text fill="#000000" font-family="sans-serif" font-size="14" font-weight="bold" lengthAdjust="spacing" textLength="97" x="236" y="228.9951">Colaborador</text><text fill="#000000" font-family="sans-serif" font-size="14" font-style="italic" lengthAdjust="spacing" textLength="89" x="387.5" y="251.292">«aggregate»</text><!--MD5=[ab5253a9f58e7de5894d107ec8cc6b2a]
cluster Funcao--><polygon fill="#DDDDDD" filter="url(#fad2hqqbyhlyq)" points="247,547,310,547,317,569.2969,462,569.2969,462,711,247,711,247,547" style="stroke:#000000;stroke-width:1.5;"/><line style="stroke:#000000;stroke-width:1.5;" x1="247" x2="317" y1="569.2969" y2="569.2969"/><text fill="#000000" font-family="sans-serif" font-size="14" font-weight="bold" lengthAdjust="spacing" textLength="57" x="251" y="561.9951">Funcao</text><text fill="#000000" font-family="sans-serif" font-size="14" font-style="italic" lengthAdjust="spacing" textLength="89" x="314" y="584.292">«aggregate»</text><!--MD5=[bbd7370cabf9aae1a42db079da4c8b5a]
cluster Tarefa--><polygon fill="#DDDDDD" filter="url(#fad2hqqbyhlyq)" points="16,6,73,6,80,28.2969,208,28.2969,208,409.5,16,409.5,16,6" style="stroke:#000000;stroke-width:1.5;"/><line style="stroke:#000000;stroke-width:1.5;" x1="16" x2="80" y1="28.2969" y2="28.2969"/><text fill="#000000" font-family="sans-serif" font-size="14" font-weight="bold" lengthAdjust="spacing" textLength="51" x="20" y="20.9951">Tarefa</text><text fill="#000000" font-family="sans-serif" font-size="14" font-style="italic" lengthAdjust="spacing" textLength="89" x="71.5" y="43.292">«aggregate»</text><!--MD5=[8c44d0ebac1b560a991f8688d2de18fe]
cluster Assignacao--><polygon fill="#DDDDDD" filter="url(#fad2hqqbyhlyq)" points="905,11,1001,11,1008,33.2969,1320,33.2969,1320,427,905,427,905,11" style="stroke:#000000;stroke-width:1.5;"/><line style="stroke:#000000;stroke-width:1.5;" x1="905" x2="1008" y1="33.2969" y2="33.2969"/><text fill="#000000" font-family="sans-serif" font-size="14" font-weight="bold" lengthAdjust="spacing" textLength="90" x="909" y="25.9951">Assignacao</text><text fill="#000000" font-family="sans-serif" font-size="14" font-style="italic" lengthAdjust="spacing" textLength="89" x="1072" y="48.292">«aggregate»</text><!--MD5=[5dd1d6732c071e710b9290b531f2fa3b]
class Utilizador--><rect codeLine="4" fill="#FEFECE" filter="url(#fad2hqqbyhlyq)" height="67.9063" id="Utilizador" style="stroke:#A80036;stroke-width:1.5;" width="89" x="691.5" y="70"/><ellipse cx="706.5" cy="95.9531" fill="#ADD1B2" rx="11" ry="11" style="stroke:#A80036;stroke-width:1.0;"/><path d="M709.4688,101.5938 Q708.8906,101.8906 708.25,102.0313 Q707.6094,102.1875 706.9063,102.1875 Q704.4063,102.1875 703.0781,100.5469 Q701.7656,98.8906 701.7656,95.7656 Q701.7656,92.6406 703.0781,90.9844 Q704.4063,89.3281 706.9063,89.3281 Q707.6094,89.3281 708.25,89.4844 Q708.9063,89.6406 709.4688,89.9375 L709.4688,92.6563 Q708.8438,92.0781 708.25,91.8125 Q707.6563,91.5313 707.0313,91.5313 Q705.6875,91.5313 705,92.6094 Q704.3125,93.6719 704.3125,95.7656 Q704.3125,97.8594 705,98.9375 Q705.6875,100 707.0313,100 Q707.6563,100 708.25,99.7344 Q708.8438,99.4531 709.4688,98.875 L709.4688,101.5938 Z " fill="#000000"/><text fill="#000000" font-family="sans-serif" font-size="12" font-style="italic" lengthAdjust="spacing" textLength="49" x="724.5" y="86.1387">«entity»</text><text fill="#000000" font-family="sans-serif" font-size="12" font-style="italic" lengthAdjust="spacing" textLength="40" x="729" y="100.1074">«root»</text><text fill="#000000" font-family="sans-serif" font-size="12" lengthAdjust="spacing" textLength="57" x="720.5" y="114.0762">Utilizador</text><line style="stroke:#A80036;stroke-width:1.5;" x1="692.5" x2="779.5" y1="121.9063" y2="121.9063"/><line style="stroke:#A80036;stroke-width:1.5;" x1="692.5" x2="779.5" y1="129.9063" y2="129.9063"/><!--MD5=[ac8682ea5466d223e49472789fb200d2]
class Colaborador--><rect codeLine="12" fill="#FEFECE" filter="url(#fad2hqqbyhlyq)" height="208.7578" id="Colaborador" style="stroke:#A80036;stroke-width:1.5;" width="233" x="247.5" y="265"/><ellipse cx="321.25" cy="290.9531" fill="#ADD1B2" rx="11" ry="11" style="stroke:#A80036;stroke-width:1.0;"/><path d="M324.2188,296.5938 Q323.6406,296.8906 323,297.0313 Q322.3594,297.1875 321.6563,297.1875 Q319.1563,297.1875 317.8281,295.5469 Q316.5156,293.8906 316.5156,290.7656 Q316.5156,287.6406 317.8281,285.9844 Q319.1563,284.3281 321.6563,284.3281 Q322.3594,284.3281 323,284.4844 Q323.6563,284.6406 324.2188,284.9375 L324.2188,287.6563 Q323.5938,287.0781 323,286.8125 Q322.4063,286.5313 321.7813,286.5313 Q320.4375,286.5313 319.75,287.6094 Q319.0625,288.6719 319.0625,290.7656 Q319.0625,292.8594 319.75,293.9375 Q320.4375,295 321.7813,295 Q322.4063,295 323,294.7344 Q323.5938,294.4531 324.2188,293.875 L324.2188,296.5938 Z " fill="#000000"/><text fill="#000000" font-family="sans-serif" font-size="12" font-style="italic" lengthAdjust="spacing" textLength="49" x="355.75" y="281.1387">«entity»</text><text fill="#000000" font-family="sans-serif" font-size="12" font-style="italic" lengthAdjust="spacing" textLength="40" x="360.25" y="295.1074">«root»</text><text fill="#000000" font-family="sans-serif" font-size="12" lengthAdjust="spacing" textLength="77" x="341.75" y="309.0762">Colaborador</text><line style="stroke:#A80036;stroke-width:1.5;" x1="248.5" x2="479.5" y1="316.9063" y2="316.9063"/><text fill="#000000" font-family="sans-serif" font-size="11" lengthAdjust="spacing" textLength="69" x="253.5" y="331.1167">Nome nome</text><text fill="#000000" font-family="sans-serif" font-size="11" lengthAdjust="spacing" textLength="33" x="253.5" y="343.9214">Nif nif</text><text fill="#000000" font-family="sans-serif" font-size="11" lengthAdjust="spacing" textLength="39" x="253.5" y="356.7261">Nib nib</text><text fill="#000000" font-family="sans-serif" font-size="11" lengthAdjust="spacing" textLength="128" x="253.5" y="369.5308">EstadoCivil estadoCivil</text><text fill="#000000" font-family="sans-serif" font-size="11" lengthAdjust="spacing" textLength="133" x="253.5" y="382.3354">Morada localResidencia</text><text fill="#000000" font-family="sans-serif" font-size="11" lengthAdjust="spacing" textLength="218" x="253.5" y="395.1401">ContactoTelefonico contactoTelefonico</text><text fill="#000000" font-family="sans-serif" font-size="11" lengthAdjust="spacing" textLength="134" x="253.5" y="407.9448">Email emailInstitucional</text><text fill="#000000" font-family="sans-serif" font-size="11" lengthAdjust="spacing" textLength="116" x="253.5" y="420.7495">Password password</text><text fill="#000000" font-family="sans-serif" font-size="11" lengthAdjust="spacing" textLength="122" x="253.5" y="433.5542">Data dataNascimento</text><text fill="#000000" font-family="sans-serif" font-size="11" lengthAdjust="spacing" textLength="221" x="253.5" y="446.3589">HabilitacaoLiteraria habilitacaoLiteraria</text><text fill="#000000" font-family="sans-serif" font-size="11" lengthAdjust="spacing" textLength="193" x="253.5" y="459.1636">NrMecanografico nrMecanografico</text><line style="stroke:#A80036;stroke-width:1.5;" x1="248.5" x2="479.5" y1="465.7578" y2="465.7578"/><!--MD5=[b6491c6bfca6d442eeced1751ed765da]
class Funcao--><rect codeLine="32" fill="#FEFECE" filter="url(#fad2hqqbyhlyq)" height="80.7109" id="Funcao" style="stroke:#A80036;stroke-width:1.5;" width="147" x="290.5" y="606"/><ellipse cx="336.75" cy="631.9531" fill="#ADD1B2" rx="11" ry="11" style="stroke:#A80036;stroke-width:1.0;"/><path d="M339.7188,637.5938 Q339.1406,637.8906 338.5,638.0313 Q337.8594,638.1875 337.1563,638.1875 Q334.6563,638.1875 333.3281,636.5469 Q332.0156,634.8906 332.0156,631.7656 Q332.0156,628.6406 333.3281,626.9844 Q334.6563,625.3281 337.1563,625.3281 Q337.8594,625.3281 338.5,625.4844 Q339.1563,625.6406 339.7188,625.9375 L339.7188,628.6563 Q339.0938,628.0781 338.5,627.8125 Q337.9063,627.5313 337.2813,627.5313 Q335.9375,627.5313 335.25,628.6094 Q334.5625,629.6719 334.5625,631.7656 Q334.5625,633.8594 335.25,634.9375 Q335.9375,636 337.2813,636 Q337.9063,636 338.5,635.7344 Q339.0938,635.4531 339.7188,634.875 L339.7188,637.5938 Z " fill="#000000"/><text fill="#000000" font-family="sans-serif" font-size="12" font-style="italic" lengthAdjust="spacing" textLength="49" x="355.75" y="622.1387">«entity»</text><text fill="#000000" font-family="sans-serif" font-size="12" font-style="italic" lengthAdjust="spacing" textLength="40" x="360.25" y="636.1074">«root»</text><text fill="#000000" font-family="sans-serif" font-size="12" lengthAdjust="spacing" textLength="46" x="357.25" y="650.0762">Funcao</text><line style="stroke:#A80036;stroke-width:1.5;" x1="291.5" x2="436.5" y1="657.9063" y2="657.9063"/><text fill="#000000" font-family="sans-serif" font-size="11" lengthAdjust="spacing" textLength="135" x="296.5" y="672.1167">Designacao designacao</text><line style="stroke:#A80036;stroke-width:1.5;" x1="291.5" x2="436.5" y1="678.7109" y2="678.7109"/><!--MD5=[27c2d4bbe9f7b9d3b0ea2797cc54308a]
class Tarefa--><rect codeLine="41" fill="#FEFECE" filter="url(#fad2hqqbyhlyq)" height="93.5156" id="Tarefa" style="stroke:#A80036;stroke-width:1.5;" width="160" x="32" y="57"/><ellipse cx="85.25" cy="82.9531" fill="#ADD1B2" rx="11" ry="11" style="stroke:#A80036;stroke-width:1.0;"/><path d="M88.2188,88.5938 Q87.6406,88.8906 87,89.0313 Q86.3594,89.1875 85.6563,89.1875 Q83.1563,89.1875 81.8281,87.5469 Q80.5156,85.8906 80.5156,82.7656 Q80.5156,79.6406 81.8281,77.9844 Q83.1563,76.3281 85.6563,76.3281 Q86.3594,76.3281 87,76.4844 Q87.6563,76.6406 88.2188,76.9375 L88.2188,79.6563 Q87.5938,79.0781 87,78.8125 Q86.4063,78.5313 85.7813,78.5313 Q84.4375,78.5313 83.75,79.6094 Q83.0625,80.6719 83.0625,82.7656 Q83.0625,84.8594 83.75,85.9375 Q84.4375,87 85.7813,87 Q86.4063,87 87,86.7344 Q87.5938,86.4531 88.2188,85.875 L88.2188,88.5938 Z " fill="#000000"/><text fill="#000000" font-family="sans-serif" font-size="12" font-style="italic" lengthAdjust="spacing" textLength="49" x="103.75" y="73.1387">«entity»</text><text fill="#000000" font-family="sans-serif" font-size="12" font-style="italic" lengthAdjust="spacing" textLength="40" x="108.25" y="87.1074">«root»</text><text fill="#000000" font-family="sans-serif" font-size="12" lengthAdjust="spacing" textLength="40" x="108.25" y="101.0762">Tarefa</text><line style="stroke:#A80036;stroke-width:1.5;" x1="33" x2="191" y1="108.9063" y2="108.9063"/><text fill="#000000" font-family="sans-serif" font-size="11" lengthAdjust="spacing" textLength="148" x="38" y="123.1167">Data dataLimiteConclusao</text><text fill="#000000" font-family="sans-serif" font-size="11" lengthAdjust="spacing" textLength="120" x="38" y="135.9214">Prioridade prioridade</text><line style="stroke:#A80036;stroke-width:1.5;" x1="33" x2="191" y1="142.5156" y2="142.5156"/><!--MD5=[cc4b9f9df52143e80b4eb144863d31ee]
class TarefaManual--><rect codeLine="46" fill="#FEFECE" filter="url(#fad2hqqbyhlyq)" height="48" id="TarefaManual" style="stroke:#A80036;stroke-width:1.5;" width="117" x="53.5" y="345.5"/><ellipse cx="68.5" cy="361.5" fill="#ADD1B2" rx="11" ry="11" style="stroke:#A80036;stroke-width:1.0;"/><path d="M71.4688,367.1406 Q70.8906,367.4375 70.25,367.5781 Q69.6094,367.7344 68.9063,367.7344 Q66.4063,367.7344 65.0781,366.0938 Q63.7656,364.4375 63.7656,361.3125 Q63.7656,358.1875 65.0781,356.5313 Q66.4063,354.875 68.9063,354.875 Q69.6094,354.875 70.25,355.0313 Q70.9063,355.1875 71.4688,355.4844 L71.4688,358.2031 Q70.8438,357.625 70.25,357.3594 Q69.6563,357.0781 69.0313,357.0781 Q67.6875,357.0781 67,358.1563 Q66.3125,359.2188 66.3125,361.3125 Q66.3125,363.4063 67,364.4844 Q67.6875,365.5469 69.0313,365.5469 Q69.6563,365.5469 70.25,365.2813 Q70.8438,365 71.4688,364.4219 L71.4688,367.1406 Z " fill="#000000"/><text fill="#000000" font-family="sans-serif" font-size="12" lengthAdjust="spacing" textLength="85" x="82.5" y="365.6543">TarefaManual</text><line style="stroke:#A80036;stroke-width:1.5;" x1="54.5" x2="169.5" y1="377.5" y2="377.5"/><line style="stroke:#A80036;stroke-width:1.5;" x1="54.5" x2="169.5" y1="385.5" y2="385.5"/><!--MD5=[9ec18fa724bd2a3a42dbaca5242f6cc7]
class Assignacao--><rect codeLine="64" fill="#FEFECE" filter="url(#fad2hqqbyhlyq)" height="67.9063" id="Assignacao" style="stroke:#A80036;stroke-width:1.5;" width="104" x="959" y="70"/><ellipse cx="974" cy="95.9531" fill="#ADD1B2" rx="11" ry="11" style="stroke:#A80036;stroke-width:1.0;"/><path d="M976.9688,101.5938 Q976.3906,101.8906 975.75,102.0313 Q975.1094,102.1875 974.4063,102.1875 Q971.9063,102.1875 970.5781,100.5469 Q969.2656,98.8906 969.2656,95.7656 Q969.2656,92.6406 970.5781,90.9844 Q971.9063,89.3281 974.4063,89.3281 Q975.1094,89.3281 975.75,89.4844 Q976.4063,89.6406 976.9688,89.9375 L976.9688,92.6563 Q976.3438,92.0781 975.75,91.8125 Q975.1563,91.5313 974.5313,91.5313 Q973.1875,91.5313 972.5,92.6094 Q971.8125,93.6719 971.8125,95.7656 Q971.8125,97.8594 972.5,98.9375 Q973.1875,100 974.5313,100 Q975.1563,100 975.75,99.7344 Q976.3438,99.4531 976.9688,98.875 L976.9688,101.5938 Z " fill="#000000"/><text fill="#000000" font-family="sans-serif" font-size="12" font-style="italic" lengthAdjust="spacing" textLength="49" x="999.5" y="86.1387">«entity»</text><text fill="#000000" font-family="sans-serif" font-size="12" font-style="italic" lengthAdjust="spacing" textLength="40" x="1004" y="100.1074">«root»</text><text fill="#000000" font-family="sans-serif" font-size="12" lengthAdjust="spacing" textLength="72" x="988" y="114.0762">Assignacao</text><line style="stroke:#A80036;stroke-width:1.5;" x1="960" x2="1062" y1="121.9063" y2="121.9063"/><line style="stroke:#A80036;stroke-width:1.5;" x1="960" x2="1062" y1="129.9063" y2="129.9063"/><!--MD5=[35e11d1faf77002529eef1afd8ca7ef8]
class AssignacaoManual--><rect codeLine="68" fill="#FEFECE" filter="url(#fad2hqqbyhlyq)" height="66.7422" id="AssignacaoManual" style="stroke:#A80036;stroke-width:1.5;" width="149" x="936.5" y="336"/><ellipse cx="951.5" cy="354.9688" fill="#ADD1B2" rx="11" ry="11" style="stroke:#A80036;stroke-width:1.0;"/><path d="M954.4688,360.6094 Q953.8906,360.9063 953.25,361.0469 Q952.6094,361.2031 951.9063,361.2031 Q949.4063,361.2031 948.0781,359.5625 Q946.7656,357.9063 946.7656,354.7813 Q946.7656,351.6563 948.0781,350 Q949.4063,348.3438 951.9063,348.3438 Q952.6094,348.3438 953.25,348.5 Q953.9063,348.6563 954.4688,348.9531 L954.4688,351.6719 Q953.8438,351.0938 953.25,350.8281 Q952.6563,350.5469 952.0313,350.5469 Q950.6875,350.5469 950,351.625 Q949.3125,352.6875 949.3125,354.7813 Q949.3125,356.875 950,357.9531 Q950.6875,359.0156 952.0313,359.0156 Q952.6563,359.0156 953.25,358.75 Q953.8438,358.4688 954.4688,357.8906 L954.4688,360.6094 Z " fill="#000000"/><text fill="#000000" font-family="sans-serif" font-size="12" font-style="italic" lengthAdjust="spacing" textLength="49" x="999.5" y="352.1387">«entity»</text><text fill="#000000" font-family="sans-serif" font-size="12" lengthAdjust="spacing" textLength="117" x="965.5" y="366.1074">AssignacaoManual</text><line style="stroke:#A80036;stroke-width:1.5;" x1="937.5" x2="1084.5" y1="373.9375" y2="373.9375"/><text fill="#000000" font-family="sans-serif" font-size="11" lengthAdjust="spacing" textLength="132" x="942.5" y="388.1479">Justificacao justificacao</text><line style="stroke:#A80036;stroke-width:1.5;" x1="937.5" x2="1084.5" y1="394.7422" y2="394.7422"/><!--MD5=[95e041b7d2879a1bf9cee6f0cc8796b9]
class AssignacaoAutomatica--><rect codeLine="72" fill="#FEFECE" filter="url(#fad2hqqbyhlyq)" height="53.9375" id="AssignacaoAutomatica" style="stroke:#A80036;stroke-width:1.5;" width="175" x="1120.5" y="342.5"/><ellipse cx="1135.5" cy="361.4688" fill="#ADD1B2" rx="11" ry="11" style="stroke:#A80036;stroke-width:1.0;"/><path d="M1138.4688,367.1094 Q1137.8906,367.4063 1137.25,367.5469 Q1136.6094,367.7031 1135.9063,367.7031 Q1133.4063,367.7031 1132.0781,366.0625 Q1130.7656,364.4063 1130.7656,361.2813 Q1130.7656,358.1563 1132.0781,356.5 Q1133.4063,354.8438 1135.9063,354.8438 Q1136.6094,354.8438 1137.25,355 Q1137.9063,355.1563 1138.4688,355.4531 L1138.4688,358.1719 Q1137.8438,357.5938 1137.25,357.3281 Q1136.6563,357.0469 1136.0313,357.0469 Q1134.6875,357.0469 1134,358.125 Q1133.3125,359.1875 1133.3125,361.2813 Q1133.3125,363.375 1134,364.4531 Q1134.6875,365.5156 1136.0313,365.5156 Q1136.6563,365.5156 1137.25,365.25 Q1137.8438,364.9688 1138.4688,364.3906 L1138.4688,367.1094 Z " fill="#000000"/><text fill="#000000" font-family="sans-serif" font-size="12" font-style="italic" lengthAdjust="spacing" textLength="49" x="1196.5" y="358.6387">«entity»</text><text fill="#000000" font-family="sans-serif" font-size="12" lengthAdjust="spacing" textLength="143" x="1149.5" y="372.6074">AssignacaoAutomatica</text><line style="stroke:#A80036;stroke-width:1.5;" x1="1121.5" x2="1294.5" y1="380.4375" y2="380.4375"/><line style="stroke:#A80036;stroke-width:1.5;" x1="1121.5" x2="1294.5" y1="388.4375" y2="388.4375"/><!--MD5=[7e394e17d0613445ef54034da24c687a]
class ServicoAssignacao--><rect codeLine="54" fill="#FEFECE" filter="url(#fad2hqqbyhlyq)" height="53.9375" id="ServicoAssignacao" style="stroke:#A80036;stroke-width:1.5;" width="149" x="679.5" y="619.5"/><ellipse cx="694.5" cy="638.4688" fill="#ADD1B2" rx="11" ry="11" style="stroke:#A80036;stroke-width:1.0;"/><path d="M697.4688,644.1094 Q696.8906,644.4063 696.25,644.5469 Q695.6094,644.7031 694.9063,644.7031 Q692.4063,644.7031 691.0781,643.0625 Q689.7656,641.4063 689.7656,638.2813 Q689.7656,635.1563 691.0781,633.5 Q692.4063,631.8438 694.9063,631.8438 Q695.6094,631.8438 696.25,632 Q696.9063,632.1563 697.4688,632.4531 L697.4688,635.1719 Q696.8438,634.5938 696.25,634.3281 Q695.6563,634.0469 695.0313,634.0469 Q693.6875,634.0469 693,635.125 Q692.3125,636.1875 692.3125,638.2813 Q692.3125,640.375 693,641.4531 Q693.6875,642.5156 695.0313,642.5156 Q695.6563,642.5156 696.25,642.25 Q696.8438,641.9688 697.4688,641.3906 L697.4688,644.1094 Z " fill="#000000"/><text fill="#000000" font-family="sans-serif" font-size="12" font-style="italic" lengthAdjust="spacing" textLength="58" x="738" y="635.6387">«service»</text><text fill="#000000" font-family="sans-serif" font-size="12" lengthAdjust="spacing" textLength="117" x="708.5" y="649.6074">ServicoAssignacao</text><line style="stroke:#A80036;stroke-width:1.5;" x1="680.5" x2="827.5" y1="657.4375" y2="657.4375"/><line style="stroke:#A80036;stroke-width:1.5;" x1="680.5" x2="827.5" y1="665.4375" y2="665.4375"/><!--MD5=[6e11fc7dc4f4cce934340b65939f2e4c]
link Colaborador to Funcao--><path codeLine="26" d="M364,474.07 C364,520.05 364,571.43 364,605.85 " fill="none" id="Colaborador-to-Funcao" style="stroke:#A80036;stroke-width:1.0;"/><polygon fill="#A80036" points="364,506,361.8212,515.6048,364.9696,510.9051,369.6694,514.0535,364,506" style="stroke:#A80036;stroke-width:1.0;"/><line style="stroke:#A80036;stroke-width:1.0;" x1="364.9696" x2="407" y1="510.9051" y2="514.5"/><text fill="#000000" font-family="sans-serif" font-size="13" lengthAdjust="spacing" textLength="84" x="365" y="519.0669">desempenha</text><text fill="#000000" font-family="sans-serif" font-size="13" lengthAdjust="spacing" textLength="23" x="340.2273" y="493.6792">0..*</text><text fill="#000000" font-family="sans-serif" font-size="13" lengthAdjust="spacing" textLength="8" x="355.3375" y="594.977">1</text><!--MD5=[34472ae4dd91b5280d9be9bc7dc9279f]
link Colaborador to Colaborador--><path codeLine="27" d="M480.56,344.14 C501.15,347.47 515.5,355.93 515.5,369.5 C515.5,381.9 503.51,390.03 485.72,393.89 " fill="none" id="Colaborador-to-Colaborador" style="stroke:#A80036;stroke-width:1.0;"/><polygon fill="#A80036" points="480.56,394.86,490.1462,397.1194,485.4731,393.9317,488.6608,389.2585,480.56,394.86" style="stroke:#A80036;stroke-width:1.0;"/><text fill="#000000" font-family="sans-serif" font-size="13" lengthAdjust="spacing" textLength="97" x="521.5" y="374.0669">responsavel de</text><text fill="#000000" font-family="sans-serif" font-size="13" lengthAdjust="spacing" textLength="24" x="488.3941" y="339.2159">0..1</text><text fill="#000000" font-family="sans-serif" font-size="13" lengthAdjust="spacing" textLength="23" x="488.3637" y="393.0267">1..*</text><!--MD5=[399ef9eda1c6a12ddb921ac5faac3162]
reverse link Utilizador to Colaborador--><path codeLine="37" d="M687.17,139.59 C634.94,176.58 550.22,236.59 480.63,285.89 " fill="none" id="Utilizador-backto-Colaborador" style="stroke:#A80036;stroke-width:1.0;"/><polygon fill="#A80036" points="691.5,136.52,681.8411,138.4449,687.416,139.4045,686.4563,144.9794,691.5,136.52" style="stroke:#A80036;stroke-width:1.0;"/><text fill="#000000" font-family="sans-serif" font-size="13" lengthAdjust="spacing" textLength="69" x="627" y="194.0669">atua como</text><!--MD5=[7d3f3d0b9396fa2252aae04aedee25e7]
reverse link Tarefa to TarefaManual--><path codeLine="50" d="M112,171.39 C112,228.16 112,306.6 112,345.17 " fill="none" id="Tarefa-backto-TarefaManual" style="stroke:#A80036;stroke-width:1.0;"/><polygon fill="none" points="105,171.2,112,151.2,119,171.2,105,171.2" style="stroke:#A80036;stroke-width:1.0;"/><!--MD5=[ebe0b2adceebb6ee2636cb1948c7c8a9]
link Tarefa to Colaborador--><path codeLine="51" d="M156.18,151.2 C185.31,181.66 224.71,222.86 261.38,261.2 " fill="none" id="Tarefa-to-Colaborador" style="stroke:#A80036;stroke-width:1.0;"/><polygon fill="#A80036" points="264.92,264.9,261.5896,255.6313,261.4639,261.2868,255.8084,261.1611,264.92,264.9" style="stroke:#A80036;stroke-width:1.0;"/><text fill="#000000" font-family="sans-serif" font-size="13" lengthAdjust="spacing" textLength="158" x="202" y="194.0669">é realizada/delegada por</text><text fill="#000000" font-family="sans-serif" font-size="13" lengthAdjust="spacing" textLength="8" x="153.5792" y="170.6587">1</text><text fill="#000000" font-family="sans-serif" font-size="13" lengthAdjust="spacing" textLength="8" x="249.6722" y="254.098">1</text><!--MD5=[2234fd325c593db9db6ed59b9d35dcbf]
reverse link Assignacao to ServicoAssignacao--><path codeLine="58" d="M982.81,138.21 C974.47,146.72 964.9,155.34 955,162 C912.34,190.7 880.96,166.53 848,206 C743.36,331.33 746.98,545.41 751.79,619.42 " fill="none" id="Assignacao-backto-ServicoAssignacao" style="stroke:#A80036;stroke-width:1.0;stroke-dasharray:7.0,7.0;"/><polygon fill="#A80036" points="848,361,846.2056,370.684,849.1643,365.8626,853.9857,368.8212,848,361" style="stroke:#A80036;stroke-width:1.0;"/><line style="stroke:#A80036;stroke-width:1.0;" x1="849.1643" x2="883.5" y1="365.8626" y2="369.5"/><text fill="#000000" font-family="sans-serif" font-size="13" lengthAdjust="spacing" textLength="69" x="849" y="374.0669">resulta em</text><!--MD5=[fa062cbee72b7f7179c6c370948f9cf2]
reverse link Assignacao to AssignacaoManual--><path codeLine="76" d="M1011,158.38 C1011,211.5 1011,291.33 1011,335.74 " fill="none" id="Assignacao-backto-AssignacaoManual" style="stroke:#A80036;stroke-width:1.0;"/><polygon fill="none" points="1004,158.11,1011,138.11,1018,158.11,1004,158.11" style="stroke:#A80036;stroke-width:1.0;"/><!--MD5=[7301ae4ad9d8f152d079bcf7a7fdfc3a]
reverse link Assignacao to AssignacaoAutomatica--><path codeLine="77" d="M1057.85,153.17 C1072.87,169.45 1089.18,188.06 1103,206 C1138.25,251.77 1173.53,309.39 1192.89,342.28 " fill="none" id="Assignacao-backto-AssignacaoAutomatica" style="stroke:#A80036;stroke-width:1.0;"/><polygon fill="none" points="1052.55,157.74,1043.97,138.37,1062.76,148.16,1052.55,157.74" style="stroke:#A80036;stroke-width:1.0;"/><!--MD5=[6b95210493b08994b8560a8fe4348b20]
link Tarefa to ServicoAssignacao--><path codeLine="81" d="M192.07,110.65 C319.97,121.3 562.29,148.62 624,206 C722.54,297.63 664.61,369.34 704,498 C716.38,538.45 732.31,584.55 742.82,614.28 " fill="none" id="Tarefa-to-ServicoAssignacao" style="stroke:#A80036;stroke-width:1.0;stroke-dasharray:7.0,7.0;"/><polygon fill="#A80036" points="744.58,619.27,745.3332,609.45,742.9047,614.559,737.7956,612.1305,744.58,619.27" style="stroke:#A80036;stroke-width:1.0;"/><text fill="#000000" font-family="sans-serif" font-size="13" lengthAdjust="spacing" textLength="38" x="705" y="374.0669">Adota</text><text fill="#000000" font-family="sans-serif" font-size="13" lengthAdjust="spacing" textLength="8" x="200.0829" y="107.6653">1</text><text fill="#000000" font-family="sans-serif" font-size="13" lengthAdjust="spacing" textLength="8" x="733.4766" y="608.3282">1</text><!--MD5=[d70e1d068abd4f7d9a80b6d7471548e8]
@startuml


package "Utilizador" <<aggregate>> #DDDDDD {
    class Utilizador <<entity>> <<root>> {

    }   
}


package "Colaborador" <<aggregate>> #DDDDDD {

    class Colaborador <<entity>> <<root>> {
        Nome nome
        Nif nif
        Nib nib
        EstadoCivil estadoCivil
        Morada localResidencia
        ContactoTelefonico contactoTelefonico
        Email emailInstitucional
        Password password
        Data dataNascimento
        HabilitacaoLiteraria habilitacaoLiteraria
        NrMecanografico nrMecanografico
    }    

    Colaborador "0..*" - -> "1" Funcao : "desempenha"
    Colaborador "0..1" - -> "1..*" Colaborador : "responsavel de"
}

package "Funcao" <<aggregate>> #DDDDDD {

    class Funcao <<entity>> <<root>>{
        Designacao designacao
    }
}

    Utilizador <- - Colaborador : "atua como"

package "Tarefa" <<aggregate>> #DDDDDD {

    class Tarefa <<entity>> <<root>> {
        Data dataLimiteConclusao
        Prioridade prioridade
    }

    class TarefaManual {

    }

    Tarefa <|- - TarefaManual
        Tarefa "1" - -> "1" Colaborador : "é realizada/delegada por"
}

class ServicoAssignacao <<service>> {
        
}

    Assignacao <.- - ServicoAssignacao : "resulta em"



package Assignacao <<aggregate>> #DDDDDD {

    class Assignacao <<entity>><<root>> {
        
    }

    class AssignacaoManual <<entity>> {
        Justificacao justificacao
    }

    class AssignacaoAutomatica <<entity>> {
        
    }

Assignacao <|- - AssignacaoManual
Assignacao <|- - AssignacaoAutomatica

}

    Tarefa "1" - -.> "1" ServicoAssignacao : "Adota"

@enduml

PlantUML version 1.2021.00(Sun Jan 10 10:25:05 WET 2021)
(GPL source distribution)
Java Runtime: OpenJDK Runtime Environment
JVM: OpenJDK 64-Bit Server VM
Default Encoding: UTF-8
Language: en
Country: US
--></g></svg>