<?xml version="1.0" encoding="UTF-8" standalone="no"?><svg xmlns="http://www.w3.org/2000/svg" xmlns:xlink="http://www.w3.org/1999/xlink" contentScriptType="application/ecmascript" contentStyleType="text/css" height="553px" preserveAspectRatio="none" style="width:648px;height:553px;" version="1.1" viewBox="0 0 648 553" width="648px" zoomAndPan="magnify"><defs><filter height="300%" id="f658cki43sk0d" width="300%" x="-1" y="-1"><feGaussianBlur result="blurOut" stdDeviation="2.0"/><feColorMatrix in="blurOut" result="blurOut2" type="matrix" values="0 0 0 0 0 0 0 0 0 0 0 0 0 0 0 0 0 0 .4 0"/><feOffset dx="4.0" dy="4.0" in="blurOut2" result="blurOut3"/><feBlend in="SourceGraphic" in2="blurOut3" mode="normal"/></filter></defs><g><!--MD5=[66a97758baf50dff5c8e5e3d0421e86e]
cluster Colaborador--><polygon fill="#DDDDDD" filter="url(#f658cki43sk0d)" points="16,253,109,253,116,276.6094,364,276.6094,364,546,16,546,16,253" style="stroke:#000000;stroke-width:1.5;"/><line style="stroke:#000000;stroke-width:1.5;" x1="16" x2="116" y1="276.6094" y2="276.6094"/><text fill="#000000" font-family="sans-serif" font-size="14" font-weight="bold" lengthAdjust="spacing" textLength="87" x="20" y="269.5332">Colaborador</text><text fill="#000000" font-family="sans-serif" font-size="14" font-style="italic" lengthAdjust="spacing" textLength="81" x="153.5" y="293.1426">«aggregate»</text><!--MD5=[fd6ffa98704374b5aad2cfa919535f90]
cluster Equipa--><polygon fill="#DDDDDD" filter="url(#f658cki43sk0d)" points="139,6,193,6,200,29.6094,309,29.6094,309,203,139,203,139,6" style="stroke:#000000;stroke-width:1.5;"/><line style="stroke:#000000;stroke-width:1.5;" x1="139" x2="200" y1="29.6094" y2="29.6094"/><text fill="#000000" font-family="sans-serif" font-size="14" font-weight="bold" lengthAdjust="spacing" textLength="48" x="143" y="22.5332">Equipa</text><text fill="#000000" font-family="sans-serif" font-size="14" font-style="italic" lengthAdjust="spacing" textLength="81" x="187.5" y="46.1426">«aggregate»</text><!--MD5=[bb4b621640aac7fcb3bac1e65b280989]
cluster TipoEquipa--><polygon fill="#DDDDDD" filter="url(#f658cki43sk0d)" points="396,300,480,300,487,323.6094,631,323.6094,631,499,396,499,396,300" style="stroke:#000000;stroke-width:1.5;"/><line style="stroke:#000000;stroke-width:1.5;" x1="396" x2="487" y1="323.6094" y2="323.6094"/><text fill="#000000" font-family="sans-serif" font-size="14" font-weight="bold" lengthAdjust="spacing" textLength="78" x="400" y="316.5332">TipoEquipa</text><text fill="#000000" font-family="sans-serif" font-size="14" font-style="italic" lengthAdjust="spacing" textLength="81" x="477" y="340.1426">«aggregate»</text><!--MD5=[ac8682ea5466d223e49472789fb200d2]
class Colaborador--><rect codeLine="4" fill="#FEFECE" filter="url(#f658cki43sk0d)" height="223.4766" id="Colaborador" style="stroke:#A80036;stroke-width:1.5;" width="200" x="32" y="307"/><ellipse cx="93.25" cy="334.6406" fill="#ADD1B2" rx="11" ry="11" style="stroke:#A80036;stroke-width:1.0;"/><path d="M96.0156,330.5156 Q96.1719,330.2969 96.3594,330.1875 Q96.5469,330.0781 96.7656,330.0781 Q97.1406,330.0781 97.375,330.3438 Q97.6094,330.5938 97.6094,331.2031 L97.6094,332.6563 Q97.6094,333.2656 97.375,333.5313 Q97.1406,333.7969 96.7656,333.7969 Q96.4219,333.7969 96.2188,333.5938 Q96.0156,333.4063 95.9063,332.8906 Q95.8594,332.5313 95.6719,332.3438 Q95.3438,331.9688 94.7344,331.75 Q94.125,331.5313 93.5,331.5313 Q92.7344,331.5313 92.0938,331.8594 Q91.4688,332.1875 90.9688,332.9375 Q90.4844,333.6875 90.4844,334.7188 L90.4844,335.8125 Q90.4844,337.0469 91.375,337.875 Q92.2656,338.6875 93.8594,338.6875 Q94.7969,338.6875 95.4531,338.4375 Q95.8438,338.2813 96.2656,337.8438 Q96.5313,337.5781 96.6719,337.5 Q96.8281,337.4219 97.0313,337.4219 Q97.3594,337.4219 97.6094,337.6875 Q97.875,337.9375 97.875,338.2813 Q97.875,338.625 97.5313,339.0313 Q97.0313,339.6094 96.2344,339.9375 Q95.1563,340.3906 93.8594,340.3906 Q92.3438,340.3906 91.1406,339.7656 Q90.1563,339.2656 89.4688,338.2031 Q88.7813,337.125 88.7813,335.8438 L88.7813,334.6875 Q88.7813,333.3594 89.3906,332.2188 Q90.0156,331.0625 91.1094,330.4531 Q92.2031,329.8281 93.4375,329.8281 Q94.1719,329.8281 94.8125,330 Q95.4688,330.1563 96.0156,330.5156 Z " fill="#000000"/><text fill="#000000" font-family="sans-serif" font-size="12" font-style="italic" lengthAdjust="spacing" textLength="43" x="126.75" y="324.457">«entity»</text><text fill="#000000" font-family="sans-serif" font-size="12" font-style="italic" lengthAdjust="spacing" textLength="35" x="130.75" y="339.5508">«root»</text><text fill="#000000" font-family="sans-serif" font-size="12" lengthAdjust="spacing" textLength="69" x="113.75" y="354.6445">Colaborador</text><line style="stroke:#A80036;stroke-width:1.5;" x1="33" x2="231" y1="362.2813" y2="362.2813"/><text fill="#000000" font-family="sans-serif" font-size="11" lengthAdjust="spacing" textLength="56" x="38" y="377.7002">Nome nome</text><text fill="#000000" font-family="sans-serif" font-size="11" lengthAdjust="spacing" textLength="28" x="38" y="391.5361">Nif nif</text><text fill="#000000" font-family="sans-serif" font-size="11" lengthAdjust="spacing" textLength="32" x="38" y="405.3721">Nib nib</text><text fill="#000000" font-family="sans-serif" font-size="11" lengthAdjust="spacing" textLength="107" x="38" y="419.208">EstadoCivil estadoCivil</text><text fill="#000000" font-family="sans-serif" font-size="11" lengthAdjust="spacing" textLength="114" x="38" y="433.0439">Morada localResidencia</text><text fill="#000000" font-family="sans-serif" font-size="11" lengthAdjust="spacing" textLength="188" x="38" y="446.8799">ContactoTelefonico contactoTelefonico</text><text fill="#000000" font-family="sans-serif" font-size="11" lengthAdjust="spacing" textLength="107" x="38" y="460.7158">Email emailInstitucional</text><text fill="#000000" font-family="sans-serif" font-size="11" lengthAdjust="spacing" textLength="103" x="38" y="474.5518">Password password</text><text fill="#000000" font-family="sans-serif" font-size="11" lengthAdjust="spacing" textLength="102" x="38" y="488.3877">Data dataNascimento</text><text fill="#000000" font-family="sans-serif" font-size="11" lengthAdjust="spacing" textLength="184" x="38" y="502.2236">HabilitacaoLiteraria habilitacaoLiteraria</text><text fill="#000000" font-family="sans-serif" font-size="11" lengthAdjust="spacing" textLength="168" x="38" y="516.0596">NrMecanografico nrMecanografico</text><line style="stroke:#A80036;stroke-width:1.5;" x1="33" x2="231" y1="522.4766" y2="522.4766"/><!--MD5=[d34c3374e9f1ea92600999ba19e06c1c]
class Equipa--><rect codeLine="22" fill="#FEFECE" filter="url(#f658cki43sk0d)" height="126.625" id="Equipa" style="stroke:#A80036;stroke-width:1.5;" width="138" x="155" y="60"/><ellipse cx="200.25" cy="87.6406" fill="#ADD1B2" rx="11" ry="11" style="stroke:#A80036;stroke-width:1.0;"/><path d="M203.0156,83.5156 Q203.1719,83.2969 203.3594,83.1875 Q203.5469,83.0781 203.7656,83.0781 Q204.1406,83.0781 204.375,83.3438 Q204.6094,83.5938 204.6094,84.2031 L204.6094,85.6563 Q204.6094,86.2656 204.375,86.5313 Q204.1406,86.7969 203.7656,86.7969 Q203.4219,86.7969 203.2188,86.5938 Q203.0156,86.4063 202.9063,85.8906 Q202.8594,85.5313 202.6719,85.3438 Q202.3438,84.9688 201.7344,84.75 Q201.125,84.5313 200.5,84.5313 Q199.7344,84.5313 199.0938,84.8594 Q198.4688,85.1875 197.9688,85.9375 Q197.4844,86.6875 197.4844,87.7188 L197.4844,88.8125 Q197.4844,90.0469 198.375,90.875 Q199.2656,91.6875 200.8594,91.6875 Q201.7969,91.6875 202.4531,91.4375 Q202.8438,91.2813 203.2656,90.8438 Q203.5313,90.5781 203.6719,90.5 Q203.8281,90.4219 204.0313,90.4219 Q204.3594,90.4219 204.6094,90.6875 Q204.875,90.9375 204.875,91.2813 Q204.875,91.625 204.5313,92.0313 Q204.0313,92.6094 203.2344,92.9375 Q202.1563,93.3906 200.8594,93.3906 Q199.3438,93.3906 198.1406,92.7656 Q197.1563,92.2656 196.4688,91.2031 Q195.7813,90.125 195.7813,88.8438 L195.7813,87.6875 Q195.7813,86.3594 196.3906,85.2188 Q197.0156,84.0625 198.1094,83.4531 Q199.2031,82.8281 200.4375,82.8281 Q201.1719,82.8281 201.8125,83 Q202.4688,83.1563 203.0156,83.5156 Z " fill="#000000"/><text fill="#000000" font-family="sans-serif" font-size="12" font-style="italic" lengthAdjust="spacing" textLength="43" x="218.75" y="77.457">«entity»</text><text fill="#000000" font-family="sans-serif" font-size="12" font-style="italic" lengthAdjust="spacing" textLength="35" x="222.75" y="92.5508">«root»</text><text fill="#000000" font-family="sans-serif" font-size="12" lengthAdjust="spacing" textLength="39" x="220.75" y="107.6445">Equipa</text><line style="stroke:#A80036;stroke-width:1.5;" x1="156" x2="292" y1="115.2813" y2="115.2813"/><text fill="#000000" font-family="sans-serif" font-size="11" lengthAdjust="spacing" textLength="122" x="161" y="130.7002">CodigoUnico codigoUnico</text><text fill="#000000" font-family="sans-serif" font-size="11" lengthAdjust="spacing" textLength="116" x="161" y="144.5361">Designacao designacao</text><text fill="#000000" font-family="sans-serif" font-size="11" lengthAdjust="spacing" textLength="126" x="161" y="158.3721">Responsavel responsavel</text><text fill="#000000" font-family="sans-serif" font-size="11" lengthAdjust="spacing" textLength="93" x="161" y="172.208">Acronimo acronimo</text><line style="stroke:#A80036;stroke-width:1.5;" x1="156" x2="292" y1="178.625" y2="178.625"/><!--MD5=[90a2bf7202f74ae320fe44f966ecd476]
class TipoEquipa--><rect codeLine="33" fill="#FEFECE" filter="url(#f658cki43sk0d)" height="112.7891" id="TipoEquipa" style="stroke:#A80036;stroke-width:1.5;" width="167" x="439.5" y="362"/><ellipse cx="487.25" cy="389.6406" fill="#ADD1B2" rx="11" ry="11" style="stroke:#A80036;stroke-width:1.0;"/><path d="M490.0156,385.5156 Q490.1719,385.2969 490.3594,385.1875 Q490.5469,385.0781 490.7656,385.0781 Q491.1406,385.0781 491.375,385.3438 Q491.6094,385.5938 491.6094,386.2031 L491.6094,387.6563 Q491.6094,388.2656 491.375,388.5313 Q491.1406,388.7969 490.7656,388.7969 Q490.4219,388.7969 490.2188,388.5938 Q490.0156,388.4063 489.9063,387.8906 Q489.8594,387.5313 489.6719,387.3438 Q489.3438,386.9688 488.7344,386.75 Q488.125,386.5313 487.5,386.5313 Q486.7344,386.5313 486.0938,386.8594 Q485.4688,387.1875 484.9688,387.9375 Q484.4844,388.6875 484.4844,389.7188 L484.4844,390.8125 Q484.4844,392.0469 485.375,392.875 Q486.2656,393.6875 487.8594,393.6875 Q488.7969,393.6875 489.4531,393.4375 Q489.8438,393.2813 490.2656,392.8438 Q490.5313,392.5781 490.6719,392.5 Q490.8281,392.4219 491.0313,392.4219 Q491.3594,392.4219 491.6094,392.6875 Q491.875,392.9375 491.875,393.2813 Q491.875,393.625 491.5313,394.0313 Q491.0313,394.6094 490.2344,394.9375 Q489.1563,395.3906 487.8594,395.3906 Q486.3438,395.3906 485.1406,394.7656 Q484.1563,394.2656 483.4688,393.2031 Q482.7813,392.125 482.7813,390.8438 L482.7813,389.6875 Q482.7813,388.3594 483.3906,387.2188 Q484.0156,386.0625 485.1094,385.4531 Q486.2031,384.8281 487.4375,384.8281 Q488.1719,384.8281 488.8125,385 Q489.4688,385.1563 490.0156,385.5156 Z " fill="#000000"/><text fill="#000000" font-family="sans-serif" font-size="12" font-style="italic" lengthAdjust="spacing" textLength="43" x="517.75" y="379.457">«entity»</text><text fill="#000000" font-family="sans-serif" font-size="12" font-style="italic" lengthAdjust="spacing" textLength="35" x="521.75" y="394.5508">«root»</text><text fill="#000000" font-family="sans-serif" font-size="12" lengthAdjust="spacing" textLength="63" x="507.75" y="409.6445">TipoEquipa</text><line style="stroke:#A80036;stroke-width:1.5;" x1="440.5" x2="605.5" y1="417.2813" y2="417.2813"/><text fill="#000000" font-family="sans-serif" font-size="11" lengthAdjust="spacing" textLength="155" x="445.5" y="432.7002">CodigoUnico codigoUnicoInterno</text><text fill="#000000" font-family="sans-serif" font-size="11" lengthAdjust="spacing" textLength="100" x="445.5" y="446.5361">Descricao descricao</text><text fill="#000000" font-family="sans-serif" font-size="11" lengthAdjust="spacing" textLength="36" x="445.5" y="460.3721">Cor cor</text><line style="stroke:#A80036;stroke-width:1.5;" x1="440.5" x2="605.5" y1="466.7891" y2="466.7891"/><!--MD5=[34472ae4dd91b5280d9be9bc7dc9279f]
link Colaborador to Colaborador--><path codeLine="18" d="M232.09,384.23 C252.43,387.97 267,399.39 267,418.5 C267,435.97 254.83,447.01 237.2,451.63 " fill="none" id="Colaborador-to-Colaborador" style="stroke:#A80036;stroke-width:1.0;"/><polygon fill="#A80036" points="232.09,452.77,241.7446,454.7164,236.9703,451.6823,240.0043,446.908,232.09,452.77" style="stroke:#A80036;stroke-width:1.0;"/><text fill="#000000" font-family="sans-serif" font-size="13" lengthAdjust="spacing" textLength="86" x="273" y="423.9951">responsavel de</text><text fill="#000000" font-family="sans-serif" font-size="13" lengthAdjust="spacing" textLength="22" x="239.901" y="378.7486">0..1</text><text fill="#000000" font-family="sans-serif" font-size="13" lengthAdjust="spacing" textLength="20" x="239.8307" y="452.1078">1..*</text><!--MD5=[5516bb47a61354784b6e188a4ca048b6]
link Equipa to TipoEquipa--><path codeLine="29" d="M293.42,151.39 C338.54,171.66 396.17,203.13 436,245 C467.67,278.29 490.36,325.35 504.61,361.91 " fill="none" id="Equipa-to-TipoEquipa" style="stroke:#A80036;stroke-width:1.0;"/><polygon fill="#A80036" points="426,219,423.7454,228.5873,426.9308,223.9126,431.6055,227.098,426,219" style="stroke:#A80036;stroke-width:1.0;"/><line style="stroke:#A80036;stroke-width:1.0;" x1="426.9308" x2="473.5" y1="223.9126" y2="228"/><text fill="#000000" font-family="sans-serif" font-size="13" lengthAdjust="spacing" textLength="93" x="427" y="233.4951">caraterizada por</text><text fill="#000000" font-family="sans-serif" font-size="13" lengthAdjust="spacing" textLength="20" x="300.9897" y="150.8155">1..*</text><text fill="#000000" font-family="sans-serif" font-size="13" lengthAdjust="spacing" textLength="7" x="494.8053" y="351.1656">1</text><!--MD5=[800055ac5d319af636ae2ea613542388]
reverse link Equipa to Colaborador--><path codeLine="40" d="M151.48,183.37 C142.34,194.21 134.33,206.18 129,219 C117.69,246.21 114.27,277.39 114.73,306.84 " fill="none" id="Equipa-backto-Colaborador" style="stroke:#A80036;stroke-width:1.0;"/><polygon fill="#A80036" points="154.9,179.44,145.9721,183.5984,151.6156,183.21,152.004,188.8535,154.9,179.44" style="stroke:#A80036;stroke-width:1.0;"/><text fill="#000000" font-family="sans-serif" font-size="13" lengthAdjust="spacing" textLength="50" x="130" y="233.4951">pertence</text><text fill="#000000" font-family="sans-serif" font-size="13" lengthAdjust="spacing" textLength="20" x="127.1136" y="181.69">0..*</text><text fill="#000000" font-family="sans-serif" font-size="13" lengthAdjust="spacing" textLength="20" x="92.8978" y="296.2913">1..*</text><!--MD5=[390c889c30cd5726852ec1061e50a760]
link Equipa to Colaborador--><path codeLine="41" d="M204.26,187.36 C193.8,220.67 180.62,262.66 168.39,301.62 " fill="none" id="Equipa-to-Colaborador" style="stroke:#A80036;stroke-width:1.0;"/><polygon fill="#A80036" points="166.74,306.85,173.255,299.4639,168.2395,302.0801,165.6232,297.0647,166.74,306.85" style="stroke:#A80036;stroke-width:1.0;"/><text fill="#000000" font-family="sans-serif" font-size="13" lengthAdjust="spacing" textLength="57" x="196" y="233.4951">gerida por</text><text fill="#000000" font-family="sans-serif" font-size="13" lengthAdjust="spacing" textLength="20" x="181.1931" y="208.3031">0..*</text><text fill="#000000" font-family="sans-serif" font-size="13" lengthAdjust="spacing" textLength="20" x="148.4022" y="296.3019">1..*</text><!--MD5=[53253ffc4fd8f61882082660a6ba9590]
@startuml

package "Colaborador" <<aggregate>> #DDDDDD {

    class Colaborador <<entity>> <<root>> {
        Nome nome
        Nif nif
        Nib nib
        EstadoCivil estadoCivil
        Morada localResidencia
        ContactoTelefonico contactoTelefonico
        Email emailInstitucional
        Password password
        Data dataNascimento
        HabilitacaoLiteraria habilitacaoLiteraria
        NrMecanografico nrMecanografico
    }    

    Colaborador "0..1" - -> "1..*" Colaborador : "responsavel de"
}

package "Equipa" <<aggregate>> #DDDDDD {
    class Equipa <<entity>> <<root>> {
        CodigoUnico codigoUnico
        Designacao designacao
        Responsavel responsavel
        Acronimo acronimo
    }

    Equipa "1..*" - -> "1" TipoEquipa : "caraterizada por"
}

package "TipoEquipa" <<aggregate>> #DDDDDD {
    class TipoEquipa <<entity>> <<root>> {
        CodigoUnico codigoUnicoInterno
        Descricao descricao
        Cor cor 
    }
}

    Equipa "0..*" <- - "1..*" Colaborador : "pertence"
    Equipa "0..*" - -> "1..*" Colaborador : "gerida por"

@enduml

PlantUML version 1.2021.00(Sun Jan 10 10:25:05 WET 2021)
(GPL source distribution)
Java Runtime: Java(TM) SE Runtime Environment
JVM: Java HotSpot(TM) 64-Bit Server VM
Default Encoding: Cp1252
Language: pt
Country: PT
--></g></svg>