<?xml version="1.0" encoding="UTF-8" standalone="no"?><svg xmlns="http://www.w3.org/2000/svg" xmlns:xlink="http://www.w3.org/1999/xlink" contentScriptType="application/ecmascript" contentStyleType="text/css" height="629px" preserveAspectRatio="none" style="width:703px;height:629px;" version="1.1" viewBox="0 0 703 629" width="703px" zoomAndPan="magnify"><defs><filter height="300%" id="ff04uxe2fk6wv" width="300%" x="-1" y="-1"><feGaussianBlur result="blurOut" stdDeviation="2.0"/><feColorMatrix in="blurOut" result="blurOut2" type="matrix" values="0 0 0 0 0 0 0 0 0 0 0 0 0 0 0 0 0 0 .4 0"/><feOffset dx="4.0" dy="4.0" in="blurOut2" result="blurOut3"/><feBlend in="SourceGraphic" in2="blurOut3" mode="normal"/></filter></defs><g><!--MD5=[e5cedf9785c1fc748bbdafad1417a605]
cluster Servico--><polygon fill="#DDDDDD" filter="url(#ff04uxe2fk6wv)" points="16,6,76,6,83,29.6094,204,29.6094,204,442,16,442,16,6" style="stroke:#000000;stroke-width:1.5;"/><line style="stroke:#000000;stroke-width:1.5;" x1="16" x2="83" y1="29.6094" y2="29.6094"/><text fill="#000000" font-family="sans-serif" font-size="14" font-weight="bold" lengthAdjust="spacing" textLength="54" x="20" y="22.5332">Servico</text><text fill="#000000" font-family="sans-serif" font-size="14" font-style="italic" lengthAdjust="spacing" textLength="81" x="73.5" y="46.1426">«aggregate»</text><!--MD5=[14e25a6a0c9d83675f56844f7ba07756]
cluster Catalogo--><polygon fill="#DDDDDD" filter="url(#ff04uxe2fk6wv)" points="228,278,296,278,303,301.6094,572,301.6094,572,622,228,622,228,278" style="stroke:#000000;stroke-width:1.5;"/><line style="stroke:#000000;stroke-width:1.5;" x1="228" x2="303" y1="301.6094" y2="301.6094"/><text fill="#000000" font-family="sans-serif" font-size="14" font-weight="bold" lengthAdjust="spacing" textLength="62" x="232" y="294.5332">Catalogo</text><text fill="#000000" font-family="sans-serif" font-size="14" font-style="italic" lengthAdjust="spacing" textLength="81" x="363.5" y="318.1426">«aggregate»</text><!--MD5=[faf4d635eea35b16677487bac6ad9bf5]
class Servico--><rect codeLine="10" fill="#FEFECE" filter="url(#ff04uxe2fk6wv)" height="154.2969" id="Servico" style="stroke:#A80036;stroke-width:1.5;" width="156" x="32" y="60"/><ellipse cx="85.75" cy="87.6406" fill="#ADD1B2" rx="11" ry="11" style="stroke:#A80036;stroke-width:1.0;"/><path d="M88.5156,83.5156 Q88.6719,83.2969 88.8594,83.1875 Q89.0469,83.0781 89.2656,83.0781 Q89.6406,83.0781 89.875,83.3438 Q90.1094,83.5938 90.1094,84.2031 L90.1094,85.6563 Q90.1094,86.2656 89.875,86.5313 Q89.6406,86.7969 89.2656,86.7969 Q88.9219,86.7969 88.7188,86.5938 Q88.5156,86.4063 88.4063,85.8906 Q88.3594,85.5313 88.1719,85.3438 Q87.8438,84.9688 87.2344,84.75 Q86.625,84.5313 86,84.5313 Q85.2344,84.5313 84.5938,84.8594 Q83.9688,85.1875 83.4688,85.9375 Q82.9844,86.6875 82.9844,87.7188 L82.9844,88.8125 Q82.9844,90.0469 83.875,90.875 Q84.7656,91.6875 86.3594,91.6875 Q87.2969,91.6875 87.9531,91.4375 Q88.3438,91.2813 88.7656,90.8438 Q89.0313,90.5781 89.1719,90.5 Q89.3281,90.4219 89.5313,90.4219 Q89.8594,90.4219 90.1094,90.6875 Q90.375,90.9375 90.375,91.2813 Q90.375,91.625 90.0313,92.0313 Q89.5313,92.6094 88.7344,92.9375 Q87.6563,93.3906 86.3594,93.3906 Q84.8438,93.3906 83.6406,92.7656 Q82.6563,92.2656 81.9688,91.2031 Q81.2813,90.125 81.2813,88.8438 L81.2813,87.6875 Q81.2813,86.3594 81.8906,85.2188 Q82.5156,84.0625 83.6094,83.4531 Q84.7031,82.8281 85.9375,82.8281 Q86.6719,82.8281 87.3125,83 Q87.9688,83.1563 88.5156,83.5156 Z " fill="#000000"/><text fill="#000000" font-family="sans-serif" font-size="12" font-style="italic" lengthAdjust="spacing" textLength="43" x="104.75" y="77.457">«entity»</text><text fill="#000000" font-family="sans-serif" font-size="12" font-style="italic" lengthAdjust="spacing" textLength="35" x="108.75" y="92.5508">«root»</text><text fill="#000000" font-family="sans-serif" font-size="12" lengthAdjust="spacing" textLength="40" x="106.25" y="107.6445">Servico</text><line style="stroke:#A80036;stroke-width:1.5;" x1="33" x2="187" y1="115.2813" y2="115.2813"/><text fill="#000000" font-family="sans-serif" font-size="11" lengthAdjust="spacing" textLength="122" x="38" y="130.7002">CodigoUnico codigoUnico</text><text fill="#000000" font-family="sans-serif" font-size="11" lengthAdjust="spacing" textLength="53" x="38" y="144.5361">Titulo Titulo</text><text fill="#000000" font-family="sans-serif" font-size="11" lengthAdjust="spacing" textLength="55" x="38" y="158.3721">Icone icone</text><text fill="#000000" font-family="sans-serif" font-size="11" lengthAdjust="spacing" textLength="129" x="38" y="172.208">Descricao descricaoBreve</text><text fill="#000000" font-family="sans-serif" font-size="11" lengthAdjust="spacing" textLength="144" x="38" y="186.0439">Descricao descricaoCompleta</text><text fill="#000000" font-family="sans-serif" font-size="11" lengthAdjust="spacing" textLength="91" x="38" y="199.8799">Keyword keyword</text><line style="stroke:#A80036;stroke-width:1.5;" x1="33" x2="187" y1="206.2969" y2="206.2969"/><!--MD5=[8f686ec10d5cb3be65c47d86ed168df8]
class EstadoEspecificacao--><rect codeLine="19" fill="#FEFECE" filter="url(#ff04uxe2fk6wv)" height="48" id="EstadoEspecificacao" style="stroke:#A80036;stroke-width:1.5;" width="148" x="36" y="378"/><ellipse cx="51" cy="394" fill="#EB937F" rx="11" ry="11" style="stroke:#A80036;stroke-width:1.0;"/><path d="M49.8594,394.7969 L49.8594,397.2969 L54.1875,397.2969 L54.1875,396.375 Q54.1875,395.7656 54.4219,395.5 Q54.6719,395.2344 55.0469,395.2344 Q55.4219,395.2344 55.6563,395.5 Q55.8906,395.7656 55.8906,396.375 L55.8906,399 L47.8906,399 Q47.2656,399 47,398.7656 Q46.75,398.5313 46.75,398.1406 Q46.75,397.7656 47.0156,397.5313 Q47.2813,397.2969 47.8906,397.2969 L48.1563,397.2969 L48.1563,390.6406 L47.8906,390.6406 Q47.2656,390.6406 47,390.4063 Q46.75,390.1719 46.75,389.7813 Q46.75,389.4063 47,389.1719 Q47.2656,388.9375 47.8906,388.9375 L55.5156,388.9375 L55.5156,391.5313 Q55.5156,392.1406 55.2813,392.4063 Q55.0625,392.6563 54.6719,392.6563 Q54.2969,392.6563 54.0625,392.4063 Q53.8281,392.1406 53.8281,391.5313 L53.8281,390.6406 L49.8594,390.6406 L49.8594,393.0938 L51.3438,393.0938 Q51.3438,392.4375 51.4688,392.25 Q51.7344,391.8438 52.2031,391.8438 Q52.5781,391.8438 52.8125,392.1094 Q53.0469,392.3594 53.0469,392.9688 L53.0469,394.9375 Q53.0469,395.4844 52.9219,395.6719 Q52.6563,396.0625 52.2031,396.0625 Q51.7344,396.0625 51.4688,395.6563 Q51.3438,395.4688 51.3438,394.7969 L49.8594,394.7969 Z " fill="#000000"/><text fill="#000000" font-family="sans-serif" font-size="12" lengthAdjust="spacing" textLength="116" x="65" y="398.9102">EstadoEspecificacao</text><line style="stroke:#A80036;stroke-width:1.5;" x1="37" x2="183" y1="410" y2="410"/><line style="stroke:#A80036;stroke-width:1.5;" x1="37" x2="183" y1="418" y2="418"/><!--MD5=[28183b5fe251cf9d4adbbaa3c2129d6e]
class Catalogo--><rect codeLine="29" fill="#FEFECE" filter="url(#ff04uxe2fk6wv)" height="140.4609" id="Catalogo" style="stroke:#A80036;stroke-width:1.5;" width="156" x="322" y="332"/><ellipse cx="370.75" cy="359.6406" fill="#ADD1B2" rx="11" ry="11" style="stroke:#A80036;stroke-width:1.0;"/><path d="M373.5156,355.5156 Q373.6719,355.2969 373.8594,355.1875 Q374.0469,355.0781 374.2656,355.0781 Q374.6406,355.0781 374.875,355.3438 Q375.1094,355.5938 375.1094,356.2031 L375.1094,357.6563 Q375.1094,358.2656 374.875,358.5313 Q374.6406,358.7969 374.2656,358.7969 Q373.9219,358.7969 373.7188,358.5938 Q373.5156,358.4063 373.4063,357.8906 Q373.3594,357.5313 373.1719,357.3438 Q372.8438,356.9688 372.2344,356.75 Q371.625,356.5313 371,356.5313 Q370.2344,356.5313 369.5938,356.8594 Q368.9688,357.1875 368.4688,357.9375 Q367.9844,358.6875 367.9844,359.7188 L367.9844,360.8125 Q367.9844,362.0469 368.875,362.875 Q369.7656,363.6875 371.3594,363.6875 Q372.2969,363.6875 372.9531,363.4375 Q373.3438,363.2813 373.7656,362.8438 Q374.0313,362.5781 374.1719,362.5 Q374.3281,362.4219 374.5313,362.4219 Q374.8594,362.4219 375.1094,362.6875 Q375.375,362.9375 375.375,363.2813 Q375.375,363.625 375.0313,364.0313 Q374.5313,364.6094 373.7344,364.9375 Q372.6563,365.3906 371.3594,365.3906 Q369.8438,365.3906 368.6406,364.7656 Q367.6563,364.2656 366.9688,363.2031 Q366.2813,362.125 366.2813,360.8438 L366.2813,359.6875 Q366.2813,358.3594 366.8906,357.2188 Q367.5156,356.0625 368.6094,355.4531 Q369.7031,354.8281 370.9375,354.8281 Q371.6719,354.8281 372.3125,355 Q372.9688,355.1563 373.5156,355.5156 Z " fill="#000000"/><text fill="#000000" font-family="sans-serif" font-size="12" font-style="italic" lengthAdjust="spacing" textLength="43" x="394.75" y="349.457">«entity»</text><text fill="#000000" font-family="sans-serif" font-size="12" font-style="italic" lengthAdjust="spacing" textLength="35" x="398.75" y="364.5508">«root»</text><text fill="#000000" font-family="sans-serif" font-size="12" lengthAdjust="spacing" textLength="50" x="391.25" y="379.6445">Catalogo</text><line style="stroke:#A80036;stroke-width:1.5;" x1="323" x2="477" y1="387.2813" y2="387.2813"/><text fill="#000000" font-family="sans-serif" font-size="11" lengthAdjust="spacing" textLength="121" x="328" y="402.7002">Identificador identificador</text><text fill="#000000" font-family="sans-serif" font-size="11" lengthAdjust="spacing" textLength="53" x="328" y="416.5361">Titulo Titulo</text><text fill="#000000" font-family="sans-serif" font-size="11" lengthAdjust="spacing" textLength="55" x="328" y="430.3721">Icone icone</text><text fill="#000000" font-family="sans-serif" font-size="11" lengthAdjust="spacing" textLength="129" x="328" y="444.208">Descricao descricaoBreve</text><text fill="#000000" font-family="sans-serif" font-size="11" lengthAdjust="spacing" textLength="144" x="328" y="458.0439">Descricao descricaoCompleta</text><line style="stroke:#A80036;stroke-width:1.5;" x1="323" x2="477" y1="464.4609" y2="464.4609"/><!--MD5=[fce0b22a22f407139ca921eeb4fdaf13]
class CriterioAcesso--><rect codeLine="37" fill="#FEFECE" filter="url(#ff04uxe2fk6wv)" height="56.1875" id="CriterioAcesso" style="stroke:#A80036;stroke-width:1.5;" width="113" x="244.5" y="550"/><ellipse cx="259.5" cy="570.0938" fill="#ADD1B2" rx="11" ry="11" style="stroke:#A80036;stroke-width:1.0;"/><path d="M262.2656,565.9688 Q262.4219,565.75 262.6094,565.6406 Q262.7969,565.5313 263.0156,565.5313 Q263.3906,565.5313 263.625,565.7969 Q263.8594,566.0469 263.8594,566.6563 L263.8594,568.1094 Q263.8594,568.7188 263.625,568.9844 Q263.3906,569.25 263.0156,569.25 Q262.6719,569.25 262.4688,569.0469 Q262.2656,568.8594 262.1563,568.3438 Q262.1094,567.9844 261.9219,567.7969 Q261.5938,567.4219 260.9844,567.2031 Q260.375,566.9844 259.75,566.9844 Q258.9844,566.9844 258.3438,567.3125 Q257.7188,567.6406 257.2188,568.3906 Q256.7344,569.1406 256.7344,570.1719 L256.7344,571.2656 Q256.7344,572.5 257.625,573.3281 Q258.5156,574.1406 260.1094,574.1406 Q261.0469,574.1406 261.7031,573.8906 Q262.0938,573.7344 262.5156,573.2969 Q262.7813,573.0313 262.9219,572.9531 Q263.0781,572.875 263.2813,572.875 Q263.6094,572.875 263.8594,573.1406 Q264.125,573.3906 264.125,573.7344 Q264.125,574.0781 263.7813,574.4844 Q263.2813,575.0625 262.4844,575.3906 Q261.4063,575.8438 260.1094,575.8438 Q258.5938,575.8438 257.3906,575.2188 Q256.4063,574.7188 255.7188,573.6563 Q255.0313,572.5781 255.0313,571.2969 L255.0313,570.1406 Q255.0313,568.8125 255.6406,567.6719 Q256.2656,566.5156 257.3594,565.9063 Q258.4531,565.2813 259.6875,565.2813 Q260.4219,565.2813 261.0625,565.4531 Q261.7188,565.6094 262.2656,565.9688 Z " fill="#000000"/><text fill="#000000" font-family="sans-serif" font-size="12" font-style="italic" lengthAdjust="spacing" textLength="81" x="273.5" y="567.457">«value object»</text><text fill="#000000" font-family="sans-serif" font-size="12" lengthAdjust="spacing" textLength="81" x="273.5" y="582.5508">CriterioAcesso</text><line style="stroke:#A80036;stroke-width:1.5;" x1="245.5" x2="356.5" y1="590.1875" y2="590.1875"/><line style="stroke:#A80036;stroke-width:1.5;" x1="245.5" x2="356.5" y1="598.1875" y2="598.1875"/><!--MD5=[d34c3374e9f1ea92600999ba19e06c1c]
class Equipa--><rect fill="#FEFECE" filter="url(#ff04uxe2fk6wv)" height="48" id="Equipa" style="stroke:#A80036;stroke-width:1.5;" width="71" x="451.5" y="554"/><ellipse cx="466.5" cy="570" fill="#ADD1B2" rx="11" ry="11" style="stroke:#A80036;stroke-width:1.0;"/><path d="M469.2656,565.875 Q469.4219,565.6563 469.6094,565.5469 Q469.7969,565.4375 470.0156,565.4375 Q470.3906,565.4375 470.625,565.7031 Q470.8594,565.9531 470.8594,566.5625 L470.8594,568.0156 Q470.8594,568.625 470.625,568.8906 Q470.3906,569.1563 470.0156,569.1563 Q469.6719,569.1563 469.4688,568.9531 Q469.2656,568.7656 469.1563,568.25 Q469.1094,567.8906 468.9219,567.7031 Q468.5938,567.3281 467.9844,567.1094 Q467.375,566.8906 466.75,566.8906 Q465.9844,566.8906 465.3438,567.2188 Q464.7188,567.5469 464.2188,568.2969 Q463.7344,569.0469 463.7344,570.0781 L463.7344,571.1719 Q463.7344,572.4063 464.625,573.2344 Q465.5156,574.0469 467.1094,574.0469 Q468.0469,574.0469 468.7031,573.7969 Q469.0938,573.6406 469.5156,573.2031 Q469.7813,572.9375 469.9219,572.8594 Q470.0781,572.7813 470.2813,572.7813 Q470.6094,572.7813 470.8594,573.0469 Q471.125,573.2969 471.125,573.6406 Q471.125,573.9844 470.7813,574.3906 Q470.2813,574.9688 469.4844,575.2969 Q468.4063,575.75 467.1094,575.75 Q465.5938,575.75 464.3906,575.125 Q463.4063,574.625 462.7188,573.5625 Q462.0313,572.4844 462.0313,571.2031 L462.0313,570.0469 Q462.0313,568.7188 462.6406,567.5781 Q463.2656,566.4219 464.3594,565.8125 Q465.4531,565.1875 466.6875,565.1875 Q467.4219,565.1875 468.0625,565.3594 Q468.7188,565.5156 469.2656,565.875 Z " fill="#000000"/><text fill="#000000" font-family="sans-serif" font-size="12" lengthAdjust="spacing" textLength="39" x="480.5" y="574.9102">Equipa</text><line style="stroke:#A80036;stroke-width:1.5;" x1="452.5" x2="521.5" y1="586" y2="586"/><line style="stroke:#A80036;stroke-width:1.5;" x1="452.5" x2="521.5" y1="594" y2="594"/><!--MD5=[ac8682ea5466d223e49472789fb200d2]
class Colaborador--><rect codeLine="2" fill="#FEFECE" filter="url(#ff04uxe2fk6wv)" height="48" id="Colaborador" style="stroke:#A80036;stroke-width:1.5;" width="101" x="588.5" y="554"/><ellipse cx="603.5" cy="570" fill="#ADD1B2" rx="11" ry="11" style="stroke:#A80036;stroke-width:1.0;"/><path d="M606.2656,565.875 Q606.4219,565.6563 606.6094,565.5469 Q606.7969,565.4375 607.0156,565.4375 Q607.3906,565.4375 607.625,565.7031 Q607.8594,565.9531 607.8594,566.5625 L607.8594,568.0156 Q607.8594,568.625 607.625,568.8906 Q607.3906,569.1563 607.0156,569.1563 Q606.6719,569.1563 606.4688,568.9531 Q606.2656,568.7656 606.1563,568.25 Q606.1094,567.8906 605.9219,567.7031 Q605.5938,567.3281 604.9844,567.1094 Q604.375,566.8906 603.75,566.8906 Q602.9844,566.8906 602.3438,567.2188 Q601.7188,567.5469 601.2188,568.2969 Q600.7344,569.0469 600.7344,570.0781 L600.7344,571.1719 Q600.7344,572.4063 601.625,573.2344 Q602.5156,574.0469 604.1094,574.0469 Q605.0469,574.0469 605.7031,573.7969 Q606.0938,573.6406 606.5156,573.2031 Q606.7813,572.9375 606.9219,572.8594 Q607.0781,572.7813 607.2813,572.7813 Q607.6094,572.7813 607.8594,573.0469 Q608.125,573.2969 608.125,573.6406 Q608.125,573.9844 607.7813,574.3906 Q607.2813,574.9688 606.4844,575.2969 Q605.4063,575.75 604.1094,575.75 Q602.5938,575.75 601.3906,575.125 Q600.4063,574.625 599.7188,573.5625 Q599.0313,572.4844 599.0313,571.2031 L599.0313,570.0469 Q599.0313,568.7188 599.6406,567.5781 Q600.2656,566.4219 601.3594,565.8125 Q602.4531,565.1875 603.6875,565.1875 Q604.4219,565.1875 605.0625,565.3594 Q605.7188,565.5156 606.2656,565.875 Z " fill="#000000"/><text fill="#000000" font-family="sans-serif" font-size="12" lengthAdjust="spacing" textLength="69" x="617.5" y="574.9102">Colaborador</text><line style="stroke:#A80036;stroke-width:1.5;" x1="589.5" x2="688.5" y1="586" y2="586"/><line style="stroke:#A80036;stroke-width:1.5;" x1="589.5" x2="688.5" y1="594" y2="594"/><!--MD5=[04168b1be098376926884a8511f73148]
link Servico to EstadoEspecificacao--><path codeLine="23" d="M110,214.07 C110,267.14 110,334.94 110,372.58 " fill="none" id="Servico-to-EstadoEspecificacao" style="stroke:#A80036;stroke-width:1.0;"/><polygon fill="#A80036" points="110,377.91,114,368.91,110,372.91,106,368.91,110,377.91" style="stroke:#A80036;stroke-width:1.0;"/><text fill="#000000" font-family="sans-serif" font-size="13" lengthAdjust="spacing" textLength="7" x="102.6664" y="235.676">1</text><text fill="#000000" font-family="sans-serif" font-size="13" lengthAdjust="spacing" textLength="7" x="102.1031" y="367.2271">1</text><!--MD5=[636e81758c3fb0b0c10c0114303e8a47]
reverse link Servico to Catalogo--><path codeLine="41" d="M197.88,217.7 C238.03,254.11 285.14,296.83 323.77,331.87 " fill="none" id="Servico-backto-Catalogo" style="stroke:#A80036;stroke-width:1.0;"/><polygon fill="#FFFFFF" points="188.1,208.83,189.8588,215.8233,196.9906,216.8896,195.2318,209.8963,188.1,208.83" style="stroke:#A80036;stroke-width:1.0;"/><text fill="#000000" font-family="sans-serif" font-size="13" lengthAdjust="spacing" textLength="64" x="247" y="258.4951">contido em</text><text fill="#000000" font-family="sans-serif" font-size="13" lengthAdjust="spacing" textLength="20" x="195.9464" y="212.0124">1..*</text><text fill="#000000" font-family="sans-serif" font-size="13" lengthAdjust="spacing" textLength="7" x="308.5478" y="321.3023">1</text><!--MD5=[5a2de63d2337018bfe264348ac95a1e3]
link Catalogo to Equipa--><path codeLine="42" d="M434.51,472.02 C448.01,499.01 462.71,528.42 473.11,549.22 " fill="none" id="Catalogo-to-Equipa" style="stroke:#A80036;stroke-width:1.0;"/><polygon fill="#A80036" points="475.4,553.79,474.9779,543.9502,473.1753,549.3122,467.8134,547.5096,475.4,553.79" style="stroke:#A80036;stroke-width:1.0;"/><text fill="#000000" font-family="sans-serif" font-size="13" lengthAdjust="spacing" textLength="67" x="457" y="516.4951">acedido por</text><text fill="#000000" font-family="sans-serif" font-size="13" lengthAdjust="spacing" textLength="7" x="430.9017" y="494.0426">1</text><text fill="#000000" font-family="sans-serif" font-size="13" lengthAdjust="spacing" textLength="5" x="466.7869" y="543.0763">*</text><!--MD5=[7228efb285b85cdb9b153c15ec9679db]
link Catalogo to CriterioAcesso--><path codeLine="43" d="M321.88,447.38 C303.08,462.15 285.43,480.44 275,502 C268.37,515.71 272.31,531.56 278.93,545.15 " fill="none" id="Catalogo-to-CriterioAcesso" style="stroke:#A80036;stroke-width:1.0;"/><polygon fill="#A80036" points="281.26,549.66,280.6996,539.8271,278.9726,545.2139,273.5858,543.4869,281.26,549.66" style="stroke:#A80036;stroke-width:1.0;"/><text fill="#000000" font-family="sans-serif" font-size="13" lengthAdjust="spacing" textLength="166" x="276" y="516.4951">controla acesso das equipas</text><text fill="#000000" font-family="sans-serif" font-size="13" lengthAdjust="spacing" textLength="7" x="307.1006" y="448.4327">1</text><text fill="#000000" font-family="sans-serif" font-size="13" lengthAdjust="spacing" textLength="20" x="254.7544" y="539.2237">1..*</text><!--MD5=[eefd46dd0fa1bc1b47b0a9f6cb54c94c]
link Catalogo to Colaborador--><path codeLine="44" d="M478.26,459.97 C520.21,490.52 569.89,526.69 602.8,550.65 " fill="none" id="Catalogo-to-Colaborador" style="stroke:#A80036;stroke-width:1.0;"/><polygon fill="#A80036" points="607.13,553.8,602.2076,545.2694,603.0876,550.8574,597.4996,551.7374,607.13,553.8" style="stroke:#A80036;stroke-width:1.0;"/><text fill="#000000" font-family="sans-serif" font-size="13" lengthAdjust="spacing" textLength="130" x="555" y="516.4951">tem como responsavel</text><text fill="#000000" font-family="sans-serif" font-size="13" lengthAdjust="spacing" textLength="7" x="486.0528" y="462.2227">1</text><text fill="#000000" font-family="sans-serif" font-size="13" lengthAdjust="spacing" textLength="7" x="591.0664" y="543.0889">1</text><!--MD5=[a605e3cdcf8960e2248ab93cc551f955]
@startuml CriarCatalogoMD

class Colaborador {

}



package "Servico" <<aggregate>> #DDDDDD {

    class Servico <<entity>> <<root>> {
        CodigoUnico codigoUnico
        Titulo Titulo
        Icone icone
        Descricao descricaoBreve
        Descricao descricaoCompleta
        Keyword keyword
    }

    enum EstadoEspecificacao {

    }

    Servico "1" - -> "1" EstadoEspecificacao
}


package "Catalogo" <<aggregate>> #DDDDDD {

    class Catalogo <<entity>> <<root>> {
        Identificador identificador
        Titulo Titulo
        Icone icone
        Descricao descricaoBreve
        Descricao descricaoCompleta
    }

    class CriterioAcesso <<value object>>{

    }

    Servico "1..*" o- - "1" Catalogo : "contido em"    
    Catalogo "1" - -> "*" Equipa : "acedido por"
    Catalogo "1" - -> "1..*" CriterioAcesso : "controla acesso das equipas"    
    Catalogo "1" - -> "1" Colaborador : "tem como responsavel"
}


@enduml

PlantUML version 1.2021.00(Sun Jan 10 10:25:05 WET 2021)
(GPL source distribution)
Java Runtime: Java(TM) SE Runtime Environment
JVM: Java HotSpot(TM) 64-Bit Server VM
Default Encoding: Cp1252
Language: pt
Country: PT
--></g></svg>