<?xml version="1.0" encoding="UTF-8" standalone="no"?><svg xmlns="http://www.w3.org/2000/svg" xmlns:xlink="http://www.w3.org/1999/xlink" contentScriptType="application/ecmascript" contentStyleType="text/css" height="452px" preserveAspectRatio="none" style="width:711px;height:452px;" version="1.1" viewBox="0 0 711 452" width="711px" zoomAndPan="magnify"><defs><filter height="300%" id="fcpsv980osqw" width="300%" x="-1" y="-1"><feGaussianBlur result="blurOut" stdDeviation="2.0"/><feColorMatrix in="blurOut" result="blurOut2" type="matrix" values="0 0 0 0 0 0 0 0 0 0 0 0 0 0 0 0 0 0 .4 0"/><feOffset dx="4.0" dy="4.0" in="blurOut2" result="blurOut3"/><feBlend in="SourceGraphic" in2="blurOut3" mode="normal"/></filter></defs><g><!--class AuthenticationService--><rect fill="#FEFECE" filter="url(#fcpsv980osqw)" height="70.0234" id="AuthenticationService" style="stroke: #A80036; stroke-width: 1.5;" width="149" x="330.5" y="8"/><ellipse cx="345.5" cy="28.0938" fill="#ADD1B2" rx="11" ry="11" style="stroke: #A80036; stroke-width: 1.0;"/><path d="M348.2656,23.9688 Q348.4219,23.75 348.6094,23.6406 Q348.7969,23.5313 349.0156,23.5313 Q349.3906,23.5313 349.625,23.7891 Q349.8594,24.0469 349.8594,24.6563 L349.8594,26.1094 Q349.8594,26.7188 349.625,26.9844 Q349.3906,27.25 349.0156,27.25 Q348.6719,27.25 348.4688,27.0469 Q348.2656,26.8594 348.1563,26.3438 Q348.1094,25.9844 347.9219,25.7969 Q347.5938,25.4219 346.9844,25.2031 Q346.375,24.9844 345.75,24.9844 Q344.9844,24.9844 344.3516,25.3125 Q343.7188,25.6406 343.2266,26.3906 Q342.7344,27.1406 342.7344,28.1719 L342.7344,29.2656 Q342.7344,30.5 343.625,31.3203 Q344.5156,32.1406 346.1094,32.1406 Q347.0469,32.1406 347.7031,31.8906 Q348.0938,31.7344 348.5156,31.2969 Q348.7813,31.0313 348.9297,30.9531 Q349.0781,30.875 349.2813,30.875 Q349.6094,30.875 349.8672,31.1328 Q350.125,31.3906 350.125,31.7344 Q350.125,32.0781 349.7813,32.4844 Q349.2813,33.0625 348.4844,33.3906 Q347.4063,33.8438 346.1094,33.8438 Q344.5938,33.8438 343.3906,33.2188 Q342.4063,32.7188 341.7188,31.6484 Q341.0313,30.5781 341.0313,29.2969 L341.0313,28.1406 Q341.0313,26.8125 341.6484,25.6641 Q342.2656,24.5156 343.3594,23.8984 Q344.4531,23.2813 345.6875,23.2813 Q346.4219,23.2813 347.0703,23.4453 Q347.7188,23.6094 348.2656,23.9688 Z "/><text fill="#000000" font-family="sans-serif" font-size="12" font-style="italic" lengthAdjust="spacingAndGlyphs" textLength="53" x="391.5" y="25.457">«service»</text><text fill="#000000" font-family="sans-serif" font-size="12" lengthAdjust="spacingAndGlyphs" textLength="117" x="359.5" y="40.5508">AuthenticationService</text><line style="stroke: #A80036; stroke-width: 1.5;" x1="331.5" x2="478.5" y1="48.1875" y2="48.1875"/><line style="stroke: #A80036; stroke-width: 1.5;" x1="331.5" x2="478.5" y1="56.1875" y2="56.1875"/><ellipse cx="341.5" cy="68.6055" fill="#84BE84" rx="3" ry="3" style="stroke: #038048; stroke-width: 1.0;"/><text fill="#000000" font-family="sans-serif" font-size="11" lengthAdjust="spacingAndGlyphs" textLength="67" x="350.5" y="71.6064">authenticate()</text><!--class AuthorizationService--><rect fill="#FEFECE" filter="url(#fcpsv980osqw)" height="56.1875" id="AuthorizationService" style="stroke: #A80036; stroke-width: 1.5;" width="142" x="131" y="385"/><ellipse cx="146" cy="405.0938" fill="#ADD1B2" rx="11" ry="11" style="stroke: #A80036; stroke-width: 1.0;"/><path d="M148.7656,400.9688 Q148.9219,400.75 149.1094,400.6406 Q149.2969,400.5313 149.5156,400.5313 Q149.8906,400.5313 150.125,400.7891 Q150.3594,401.0469 150.3594,401.6563 L150.3594,403.1094 Q150.3594,403.7188 150.125,403.9844 Q149.8906,404.25 149.5156,404.25 Q149.1719,404.25 148.9688,404.0469 Q148.7656,403.8594 148.6563,403.3438 Q148.6094,402.9844 148.4219,402.7969 Q148.0938,402.4219 147.4844,402.2031 Q146.875,401.9844 146.25,401.9844 Q145.4844,401.9844 144.8516,402.3125 Q144.2188,402.6406 143.7266,403.3906 Q143.2344,404.1406 143.2344,405.1719 L143.2344,406.2656 Q143.2344,407.5 144.125,408.3203 Q145.0156,409.1406 146.6094,409.1406 Q147.5469,409.1406 148.2031,408.8906 Q148.5938,408.7344 149.0156,408.2969 Q149.2813,408.0313 149.4297,407.9531 Q149.5781,407.875 149.7813,407.875 Q150.1094,407.875 150.3672,408.1328 Q150.625,408.3906 150.625,408.7344 Q150.625,409.0781 150.2813,409.4844 Q149.7813,410.0625 148.9844,410.3906 Q147.9063,410.8438 146.6094,410.8438 Q145.0938,410.8438 143.8906,410.2188 Q142.9063,409.7188 142.2188,408.6484 Q141.5313,407.5781 141.5313,406.2969 L141.5313,405.1406 Q141.5313,403.8125 142.1484,402.6641 Q142.7656,401.5156 143.8594,400.8984 Q144.9531,400.2813 146.1875,400.2813 Q146.9219,400.2813 147.5703,400.4453 Q148.2188,400.6094 148.7656,400.9688 Z "/><text fill="#000000" font-family="sans-serif" font-size="12" font-style="italic" lengthAdjust="spacingAndGlyphs" textLength="53" x="188.5" y="402.457">«service»</text><text fill="#000000" font-family="sans-serif" font-size="12" lengthAdjust="spacingAndGlyphs" textLength="110" x="160" y="417.5508">AuthorizationService</text><line style="stroke: #A80036; stroke-width: 1.5;" x1="132" x2="272" y1="425.1875" y2="425.1875"/><line style="stroke: #A80036; stroke-width: 1.5;" x1="132" x2="272" y1="433.1875" y2="433.1875"/><!--class UserSession--><rect fill="#FEFECE" filter="url(#fcpsv980osqw)" height="48" id="UserSession" style="stroke: #A80036; stroke-width: 1.5;" width="105" x="65.5" y="273"/><ellipse cx="80.5" cy="289" fill="#ADD1B2" rx="11" ry="11" style="stroke: #A80036; stroke-width: 1.0;"/><path d="M83.2656,284.875 Q83.4219,284.6563 83.6094,284.5469 Q83.7969,284.4375 84.0156,284.4375 Q84.3906,284.4375 84.625,284.6953 Q84.8594,284.9531 84.8594,285.5625 L84.8594,287.0156 Q84.8594,287.625 84.625,287.8906 Q84.3906,288.1563 84.0156,288.1563 Q83.6719,288.1563 83.4688,287.9531 Q83.2656,287.7656 83.1563,287.25 Q83.1094,286.8906 82.9219,286.7031 Q82.5938,286.3281 81.9844,286.1094 Q81.375,285.8906 80.75,285.8906 Q79.9844,285.8906 79.3516,286.2188 Q78.7188,286.5469 78.2266,287.2969 Q77.7344,288.0469 77.7344,289.0781 L77.7344,290.1719 Q77.7344,291.4063 78.625,292.2266 Q79.5156,293.0469 81.1094,293.0469 Q82.0469,293.0469 82.7031,292.7969 Q83.0938,292.6406 83.5156,292.2031 Q83.7813,291.9375 83.9297,291.8594 Q84.0781,291.7813 84.2813,291.7813 Q84.6094,291.7813 84.8672,292.0391 Q85.125,292.2969 85.125,292.6406 Q85.125,292.9844 84.7813,293.3906 Q84.2813,293.9688 83.4844,294.2969 Q82.4063,294.75 81.1094,294.75 Q79.5938,294.75 78.3906,294.125 Q77.4063,293.625 76.7188,292.5547 Q76.0313,291.4844 76.0313,290.2031 L76.0313,289.0469 Q76.0313,287.7188 76.6484,286.5703 Q77.2656,285.4219 78.3594,284.8047 Q79.4531,284.1875 80.6875,284.1875 Q81.4219,284.1875 82.0703,284.3516 Q82.7188,284.5156 83.2656,284.875 Z "/><text fill="#000000" font-family="sans-serif" font-size="12" lengthAdjust="spacingAndGlyphs" textLength="73" x="94.5" y="293.9102">UserSession</text><line style="stroke: #A80036; stroke-width: 1.5;" x1="66.5" x2="169.5" y1="305" y2="305"/><line style="stroke: #A80036; stroke-width: 1.5;" x1="66.5" x2="169.5" y1="313" y2="313"/><!--class Username--><rect fill="#FEFECE" filter="url(#fcpsv980osqw)" height="71.2813" id="Username" style="stroke: #A80036; stroke-width: 1.5;" width="91" x="141.5" y="138"/><ellipse cx="156.5" cy="165.6406" fill="#ADD1B2" rx="11" ry="11" style="stroke: #A80036; stroke-width: 1.0;"/><path d="M159.2656,161.5156 Q159.4219,161.2969 159.6094,161.1875 Q159.7969,161.0781 160.0156,161.0781 Q160.3906,161.0781 160.625,161.3359 Q160.8594,161.5938 160.8594,162.2031 L160.8594,163.6563 Q160.8594,164.2656 160.625,164.5313 Q160.3906,164.7969 160.0156,164.7969 Q159.6719,164.7969 159.4688,164.5938 Q159.2656,164.4063 159.1563,163.8906 Q159.1094,163.5313 158.9219,163.3438 Q158.5938,162.9688 157.9844,162.75 Q157.375,162.5313 156.75,162.5313 Q155.9844,162.5313 155.3516,162.8594 Q154.7188,163.1875 154.2266,163.9375 Q153.7344,164.6875 153.7344,165.7188 L153.7344,166.8125 Q153.7344,168.0469 154.625,168.8672 Q155.5156,169.6875 157.1094,169.6875 Q158.0469,169.6875 158.7031,169.4375 Q159.0938,169.2813 159.5156,168.8438 Q159.7813,168.5781 159.9297,168.5 Q160.0781,168.4219 160.2813,168.4219 Q160.6094,168.4219 160.8672,168.6797 Q161.125,168.9375 161.125,169.2813 Q161.125,169.625 160.7813,170.0313 Q160.2813,170.6094 159.4844,170.9375 Q158.4063,171.3906 157.1094,171.3906 Q155.5938,171.3906 154.3906,170.7656 Q153.4063,170.2656 152.7188,169.1953 Q152.0313,168.125 152.0313,166.8438 L152.0313,165.6875 Q152.0313,164.3594 152.6484,163.2109 Q153.2656,162.0625 154.3594,161.4453 Q155.4531,160.8281 156.6875,160.8281 Q157.4219,160.8281 158.0703,160.9922 Q158.7188,161.1563 159.2656,161.5156 Z "/><text fill="#000000" font-family="sans-serif" font-size="12" font-style="italic" lengthAdjust="spacingAndGlyphs" textLength="44" x="178" y="155.457">«value»</text><text fill="#000000" font-family="sans-serif" font-size="12" font-style="italic" lengthAdjust="spacingAndGlyphs" textLength="24" x="188" y="170.5508">«id»</text><text fill="#000000" font-family="sans-serif" font-size="12" lengthAdjust="spacingAndGlyphs" textLength="59" x="170.5" y="185.6445">Username</text><line style="stroke: #A80036; stroke-width: 1.5;" x1="142.5" x2="231.5" y1="193.2813" y2="193.2813"/><line style="stroke: #A80036; stroke-width: 1.5;" x1="142.5" x2="231.5" y1="201.2813" y2="201.2813"/><!--class SystemUser--><rect fill="#FEFECE" filter="url(#fcpsv980osqw)" height="56.1875" id="SystemUser" style="stroke: #A80036; stroke-width: 1.5;" width="100" x="6" y="145.5"/><ellipse cx="21" cy="165.5938" fill="#ADD1B2" rx="11" ry="11" style="stroke: #A80036; stroke-width: 1.0;"/><path d="M23.7656,161.4688 Q23.9219,161.25 24.1094,161.1406 Q24.2969,161.0313 24.5156,161.0313 Q24.8906,161.0313 25.125,161.2891 Q25.3594,161.5469 25.3594,162.1563 L25.3594,163.6094 Q25.3594,164.2188 25.125,164.4844 Q24.8906,164.75 24.5156,164.75 Q24.1719,164.75 23.9688,164.5469 Q23.7656,164.3594 23.6563,163.8438 Q23.6094,163.4844 23.4219,163.2969 Q23.0938,162.9219 22.4844,162.7031 Q21.875,162.4844 21.25,162.4844 Q20.4844,162.4844 19.8516,162.8125 Q19.2188,163.1406 18.7266,163.8906 Q18.2344,164.6406 18.2344,165.6719 L18.2344,166.7656 Q18.2344,168 19.125,168.8203 Q20.0156,169.6406 21.6094,169.6406 Q22.5469,169.6406 23.2031,169.3906 Q23.5938,169.2344 24.0156,168.7969 Q24.2813,168.5313 24.4297,168.4531 Q24.5781,168.375 24.7813,168.375 Q25.1094,168.375 25.3672,168.6328 Q25.625,168.8906 25.625,169.2344 Q25.625,169.5781 25.2813,169.9844 Q24.7813,170.5625 23.9844,170.8906 Q22.9063,171.3438 21.6094,171.3438 Q20.0938,171.3438 18.8906,170.7188 Q17.9063,170.2188 17.2188,169.1484 Q16.5313,168.0781 16.5313,166.7969 L16.5313,165.6406 Q16.5313,164.3125 17.1484,163.1641 Q17.7656,162.0156 18.8594,161.3984 Q19.9531,160.7813 21.1875,160.7813 Q21.9219,160.7813 22.5703,160.9453 Q23.2188,161.1094 23.7656,161.4688 Z "/><text fill="#000000" font-family="sans-serif" font-size="12" font-style="italic" lengthAdjust="spacingAndGlyphs" textLength="35" x="51.5" y="162.957">«root»</text><text fill="#000000" font-family="sans-serif" font-size="12" lengthAdjust="spacingAndGlyphs" textLength="68" x="35" y="178.0508">SystemUser</text><line style="stroke: #A80036; stroke-width: 1.5;" x1="7" x2="105" y1="185.6875" y2="185.6875"/><line style="stroke: #A80036; stroke-width: 1.5;" x1="7" x2="105" y1="193.6875" y2="193.6875"/><!--class Password--><rect fill="#FEFECE" filter="url(#fcpsv980osqw)" height="56.1875" id="Password" style="stroke: #A80036; stroke-width: 1.5;" width="88" x="410" y="145.5"/><ellipse cx="425" cy="165.5938" fill="#ADD1B2" rx="11" ry="11" style="stroke: #A80036; stroke-width: 1.0;"/><path d="M427.7656,161.4688 Q427.9219,161.25 428.1094,161.1406 Q428.2969,161.0313 428.5156,161.0313 Q428.8906,161.0313 429.125,161.2891 Q429.3594,161.5469 429.3594,162.1563 L429.3594,163.6094 Q429.3594,164.2188 429.125,164.4844 Q428.8906,164.75 428.5156,164.75 Q428.1719,164.75 427.9688,164.5469 Q427.7656,164.3594 427.6563,163.8438 Q427.6094,163.4844 427.4219,163.2969 Q427.0938,162.9219 426.4844,162.7031 Q425.875,162.4844 425.25,162.4844 Q424.4844,162.4844 423.8516,162.8125 Q423.2188,163.1406 422.7266,163.8906 Q422.2344,164.6406 422.2344,165.6719 L422.2344,166.7656 Q422.2344,168 423.125,168.8203 Q424.0156,169.6406 425.6094,169.6406 Q426.5469,169.6406 427.2031,169.3906 Q427.5938,169.2344 428.0156,168.7969 Q428.2813,168.5313 428.4297,168.4531 Q428.5781,168.375 428.7813,168.375 Q429.1094,168.375 429.3672,168.6328 Q429.625,168.8906 429.625,169.2344 Q429.625,169.5781 429.2813,169.9844 Q428.7813,170.5625 427.9844,170.8906 Q426.9063,171.3438 425.6094,171.3438 Q424.0938,171.3438 422.8906,170.7188 Q421.9063,170.2188 421.2188,169.1484 Q420.5313,168.0781 420.5313,166.7969 L420.5313,165.6406 Q420.5313,164.3125 421.1484,163.1641 Q421.7656,162.0156 422.8594,161.3984 Q423.9531,160.7813 425.1875,160.7813 Q425.9219,160.7813 426.5703,160.9453 Q427.2188,161.1094 427.7656,161.4688 Z "/><text fill="#000000" font-family="sans-serif" font-size="12" font-style="italic" lengthAdjust="spacingAndGlyphs" textLength="44" x="445" y="162.957">«value»</text><text fill="#000000" font-family="sans-serif" font-size="12" lengthAdjust="spacingAndGlyphs" textLength="56" x="439" y="178.0508">Password</text><line style="stroke: #A80036; stroke-width: 1.5;" x1="411" x2="497" y1="185.6875" y2="185.6875"/><line style="stroke: #A80036; stroke-width: 1.5;" x1="411" x2="497" y1="193.6875" y2="193.6875"/><!--class PasswordPolicy--><rect fill="#FEFECE" filter="url(#fcpsv980osqw)" height="56.1875" id="PasswordPolicy" style="stroke: #A80036; stroke-width: 1.5;" width="120" x="363" y="269"/><ellipse cx="378" cy="289.0938" fill="#ADD1B2" rx="11" ry="11" style="stroke: #A80036; stroke-width: 1.0;"/><path d="M380.7656,284.9688 Q380.9219,284.75 381.1094,284.6406 Q381.2969,284.5313 381.5156,284.5313 Q381.8906,284.5313 382.125,284.7891 Q382.3594,285.0469 382.3594,285.6563 L382.3594,287.1094 Q382.3594,287.7188 382.125,287.9844 Q381.8906,288.25 381.5156,288.25 Q381.1719,288.25 380.9688,288.0469 Q380.7656,287.8594 380.6563,287.3438 Q380.6094,286.9844 380.4219,286.7969 Q380.0938,286.4219 379.4844,286.2031 Q378.875,285.9844 378.25,285.9844 Q377.4844,285.9844 376.8516,286.3125 Q376.2188,286.6406 375.7266,287.3906 Q375.2344,288.1406 375.2344,289.1719 L375.2344,290.2656 Q375.2344,291.5 376.125,292.3203 Q377.0156,293.1406 378.6094,293.1406 Q379.5469,293.1406 380.2031,292.8906 Q380.5938,292.7344 381.0156,292.2969 Q381.2813,292.0313 381.4297,291.9531 Q381.5781,291.875 381.7813,291.875 Q382.1094,291.875 382.3672,292.1328 Q382.625,292.3906 382.625,292.7344 Q382.625,293.0781 382.2813,293.4844 Q381.7813,294.0625 380.9844,294.3906 Q379.9063,294.8438 378.6094,294.8438 Q377.0938,294.8438 375.8906,294.2188 Q374.9063,293.7188 374.2188,292.6484 Q373.5313,291.5781 373.5313,290.2969 L373.5313,289.1406 Q373.5313,287.8125 374.1484,286.6641 Q374.7656,285.5156 375.8594,284.8984 Q376.9531,284.2813 378.1875,284.2813 Q378.9219,284.2813 379.5703,284.4453 Q380.2188,284.6094 380.7656,284.9688 Z "/><text fill="#000000" font-family="sans-serif" font-size="12" font-style="italic" lengthAdjust="spacingAndGlyphs" textLength="53" x="409.5" y="286.457">«service»</text><text fill="#000000" font-family="sans-serif" font-size="12" lengthAdjust="spacingAndGlyphs" textLength="88" x="392" y="301.5508">PasswordPolicy</text><line style="stroke: #A80036; stroke-width: 1.5;" x1="364" x2="482" y1="309.1875" y2="309.1875"/><line style="stroke: #A80036; stroke-width: 1.5;" x1="364" x2="482" y1="317.1875" y2="317.1875"/><!--class PasswordEncoder--><rect fill="#FEFECE" filter="url(#fcpsv980osqw)" height="56.1875" id="PasswordEncoder" style="stroke: #A80036; stroke-width: 1.5;" width="134" x="566" y="269"/><ellipse cx="581" cy="289.0938" fill="#ADD1B2" rx="11" ry="11" style="stroke: #A80036; stroke-width: 1.0;"/><path d="M583.7656,284.9688 Q583.9219,284.75 584.1094,284.6406 Q584.2969,284.5313 584.5156,284.5313 Q584.8906,284.5313 585.125,284.7891 Q585.3594,285.0469 585.3594,285.6563 L585.3594,287.1094 Q585.3594,287.7188 585.125,287.9844 Q584.8906,288.25 584.5156,288.25 Q584.1719,288.25 583.9688,288.0469 Q583.7656,287.8594 583.6563,287.3438 Q583.6094,286.9844 583.4219,286.7969 Q583.0938,286.4219 582.4844,286.2031 Q581.875,285.9844 581.25,285.9844 Q580.4844,285.9844 579.8516,286.3125 Q579.2188,286.6406 578.7266,287.3906 Q578.2344,288.1406 578.2344,289.1719 L578.2344,290.2656 Q578.2344,291.5 579.125,292.3203 Q580.0156,293.1406 581.6094,293.1406 Q582.5469,293.1406 583.2031,292.8906 Q583.5938,292.7344 584.0156,292.2969 Q584.2813,292.0313 584.4297,291.9531 Q584.5781,291.875 584.7813,291.875 Q585.1094,291.875 585.3672,292.1328 Q585.625,292.3906 585.625,292.7344 Q585.625,293.0781 585.2813,293.4844 Q584.7813,294.0625 583.9844,294.3906 Q582.9063,294.8438 581.6094,294.8438 Q580.0938,294.8438 578.8906,294.2188 Q577.9063,293.7188 577.2188,292.6484 Q576.5313,291.5781 576.5313,290.2969 L576.5313,289.1406 Q576.5313,287.8125 577.1484,286.6641 Q577.7656,285.5156 578.8594,284.8984 Q579.9531,284.2813 581.1875,284.2813 Q581.9219,284.2813 582.5703,284.4453 Q583.2188,284.6094 583.7656,284.9688 Z "/><text fill="#000000" font-family="sans-serif" font-size="12" font-style="italic" lengthAdjust="spacingAndGlyphs" textLength="53" x="619.5" y="286.457">«service»</text><text fill="#000000" font-family="sans-serif" font-size="12" lengthAdjust="spacingAndGlyphs" textLength="102" x="595" y="301.5508">PasswordEncoder</text><line style="stroke: #A80036; stroke-width: 1.5;" x1="567" x2="699" y1="309.1875" y2="309.1875"/><line style="stroke: #A80036; stroke-width: 1.5;" x1="567" x2="699" y1="317.1875" y2="317.1875"/><!--class Role--><rect fill="#FEFECE" filter="url(#fcpsv980osqw)" height="56.1875" id="Role" style="stroke: #A80036; stroke-width: 1.5;" width="72" x="533" y="145.5"/><ellipse cx="548" cy="165.5938" fill="#ADD1B2" rx="11" ry="11" style="stroke: #A80036; stroke-width: 1.0;"/><path d="M550.7656,161.4688 Q550.9219,161.25 551.1094,161.1406 Q551.2969,161.0313 551.5156,161.0313 Q551.8906,161.0313 552.125,161.2891 Q552.3594,161.5469 552.3594,162.1563 L552.3594,163.6094 Q552.3594,164.2188 552.125,164.4844 Q551.8906,164.75 551.5156,164.75 Q551.1719,164.75 550.9688,164.5469 Q550.7656,164.3594 550.6563,163.8438 Q550.6094,163.4844 550.4219,163.2969 Q550.0938,162.9219 549.4844,162.7031 Q548.875,162.4844 548.25,162.4844 Q547.4844,162.4844 546.8516,162.8125 Q546.2188,163.1406 545.7266,163.8906 Q545.2344,164.6406 545.2344,165.6719 L545.2344,166.7656 Q545.2344,168 546.125,168.8203 Q547.0156,169.6406 548.6094,169.6406 Q549.5469,169.6406 550.2031,169.3906 Q550.5938,169.2344 551.0156,168.7969 Q551.2813,168.5313 551.4297,168.4531 Q551.5781,168.375 551.7813,168.375 Q552.1094,168.375 552.3672,168.6328 Q552.625,168.8906 552.625,169.2344 Q552.625,169.5781 552.2813,169.9844 Q551.7813,170.5625 550.9844,170.8906 Q549.9063,171.3438 548.6094,171.3438 Q547.0938,171.3438 545.8906,170.7188 Q544.9063,170.2188 544.2188,169.1484 Q543.5313,168.0781 543.5313,166.7969 L543.5313,165.6406 Q543.5313,164.3125 544.1484,163.1641 Q544.7656,162.0156 545.8594,161.3984 Q546.9531,160.7813 548.1875,160.7813 Q548.9219,160.7813 549.5703,160.9453 Q550.2188,161.1094 550.7656,161.4688 Z "/><text fill="#000000" font-family="sans-serif" font-size="12" font-style="italic" lengthAdjust="spacingAndGlyphs" textLength="44" x="560" y="162.957">«value»</text><text fill="#000000" font-family="sans-serif" font-size="12" lengthAdjust="spacingAndGlyphs" textLength="26" x="569" y="178.0508">Role</text><line style="stroke: #A80036; stroke-width: 1.5;" x1="534" x2="604" y1="185.6875" y2="185.6875"/><line style="stroke: #A80036; stroke-width: 1.5;" x1="534" x2="604" y1="193.6875" y2="193.6875"/><!--link SystemUser to Username--><path d="M106.148,173.5 C116.099,173.5 126.05,173.5 136.001,173.5 " fill="none" id="SystemUser-Username" style="stroke: #A80036; stroke-width: 1.0;"/><polygon fill="#A80036" points="141.205,173.5,132.205,169.5,136.205,173.5,132.205,177.5,141.205,173.5" style="stroke: #A80036; stroke-width: 1.0;"/><!--link SystemUser to Password--><path d="M82.8632,145.494 C98.4603,131.297 119.364,115.505 141.5,108 C235.785,76.036 270.954,76.818 365.5,108 C386.419,114.899 406.437,128.859 422.127,142.125 " fill="none" id="SystemUser-Password" style="stroke: #A80036; stroke-width: 1.0;"/><polygon fill="#A80036" points="426.02,145.478,421.8108,136.5739,422.2314,142.2151,416.5902,142.6357,426.02,145.478" style="stroke: #A80036; stroke-width: 1.0;"/><!--link Password to PasswordPolicy--><path d="M447.043,201.767 C442.376,220.057 436.207,244.237 431.286,263.523 " fill="none" id="Password-PasswordPolicy" style="stroke: #A80036; stroke-width: 1.0; stroke-dasharray: 7.0,7.0;"/><polygon fill="#A80036" points="429.934,268.824,436.0339,261.0915,431.1695,263.9791,428.282,259.1147,429.934,268.824" style="stroke: #A80036; stroke-width: 1.0;"/><!--link Password to PasswordEncoder--><path d="M494.171,201.767 C522.269,220.839 559.8,246.314 588.755,265.968 " fill="none" id="Password-PasswordEncoder" style="stroke: #A80036; stroke-width: 1.0; stroke-dasharray: 7.0,7.0;"/><polygon fill="#A80036" points="592.963,268.824,587.7634,260.4595,588.8262,266.0157,583.2701,267.0784,592.963,268.824" style="stroke: #A80036; stroke-width: 1.0;"/><!--link SystemUser to UserSession--><path d="M72.2765,206.397 C82.931,227.276 96.6079,254.078 106.217,272.909 " fill="none" id="SystemUser-UserSession" style="stroke: #A80036; stroke-width: 1.0;"/><polygon fill="#A80036" points="69.914,201.767,70.4422,211.6017,72.1868,206.2206,77.5679,207.9652,69.914,201.767" style="stroke: #A80036; stroke-width: 1.0;"/><!--link AuthenticationService to Username--><path d="M347.152,78.098 C312.868,98.307 269.852,123.663 237.036,143.006 " fill="none" id="AuthenticationService-Username" style="stroke: #A80036; stroke-width: 1.0; stroke-dasharray: 7.0,7.0;"/><polygon fill="#A80036" points="232.679,145.574,242.4635,144.4502,236.9865,143.0352,238.4015,137.5582,232.679,145.574" style="stroke: #A80036; stroke-width: 1.0;"/><!--link AuthenticationService to Password--><path d="M418.002,78.098 C425.373,97.428 434.54,121.466 441.778,140.448 " fill="none" id="AuthenticationService-Password" style="stroke: #A80036; stroke-width: 1.0; stroke-dasharray: 7.0,7.0;"/><polygon fill="#A80036" points="443.574,145.159,444.1056,135.3245,441.7929,140.487,436.6304,138.1743,443.574,145.159" style="stroke: #A80036; stroke-width: 1.0;"/><!--link AuthenticationService to Role--><path d="M448.518,78.098 C473.905,97.989 505.655,122.867 530.188,142.09 " fill="none" id="AuthenticationService-Role" style="stroke: #A80036; stroke-width: 1.0; stroke-dasharray: 7.0,7.0;"/><polygon fill="#A80036" points="534.371,145.367,529.7529,136.668,530.435,142.2836,524.8194,142.9657,534.371,145.367" style="stroke: #A80036; stroke-width: 1.0;"/><!--link AuthenticationService to AuthorizationService--><path d="M386.085,78.29 C346.885,149.351 257.289,311.771 219.415,380.4297 " fill="none" id="AuthenticationService-AuthorizationService" style="stroke: #A80036; stroke-width: 1.0; stroke-dasharray: 7.0,7.0;"/><polygon fill="#A80036" points="216.996,384.8146,224.8454,378.8659,219.4109,380.4364,217.8403,375.002,216.996,384.8146" style="stroke: #A80036; stroke-width: 1.0;"/><!--link UserSession to AuthorizationService--><path d="M138.286,325.53 C151.573,343.5629 168.859,367.023 182.073,384.9565 " fill="none" id="UserSession-AuthorizationService" style="stroke: #A80036; stroke-width: 1.0;"/><polygon fill="#A80036" points="134.999,321.07,137.1166,330.6885,137.9646,325.0956,143.5575,325.9435,134.999,321.07" style="stroke: #A80036; stroke-width: 1.0;"/><!--link AuthenticationService to PasswordPolicy--><path d="M397.404,78.041 C391.075,111.565 384.243,164.121 392,209 C395.242,227.758 402.144,247.828 408.614,263.959 " fill="none" id="AuthenticationService-PasswordPolicy" style="stroke: #A80036; stroke-width: 1.0; stroke-dasharray: 7.0,7.0;"/><polygon fill="#A80036" points="410.604,268.833,410.9049,258.9887,408.7138,264.204,403.4985,262.013,410.604,268.833" style="stroke: #A80036; stroke-width: 1.0;"/><!--link AuthenticationService to PasswordEncoder--><path d="M479.688,55.958 C528.555,67.961 589.216,91.665 622,138 C648.005,174.754 645.244,229.13 639.876,263.549 " fill="none" id="AuthenticationService-PasswordEncoder" style="stroke: #A80036; stroke-width: 1.0; stroke-dasharray: 7.0,7.0;"/><polygon fill="#A80036" points="638.996,268.896,644.4038,260.6646,639.8076,263.9623,636.5099,259.3661,638.996,268.896" style="stroke: #A80036; stroke-width: 1.0;"/><!--
@startuml
class AuthenticationService <<service>> {
           +authenticate()
           }

           class AuthorizationService <<service>>

           class UserSession

           class Username <<value>><<id>>

           class SystemUser <<root>>

           class Password <<value>>

           class PasswordPolicy <<service>>

           class PasswordEncoder <<service>>

           class Role <<value>>

           SystemUser -> Username
           SystemUser -> Password
           Password ..> PasswordPolicy
           Password ..> PasswordEncoder
           SystemUser <- - UserSession
           AuthenticationService ..> Username
           AuthenticationService ..> Password
           AuthenticationService ..> Role
           AuthenticationService ..> AuthorizationService
           UserSession <- - AuthorizationService
           AuthenticationService ..> PasswordPolicy
           AuthenticationService ..> PasswordEncoder
@enduml

PlantUML version 1.2017.18(Fri Oct 06 17:56:32 BST 2017)
(GPL source distribution)
Java Runtime: Java(TM) SE Runtime Environment
JVM: Java HotSpot(TM) 64-Bit Server VM
Java Version: 1.8.0_202-b08
Operating System: Windows 10
OS Version: 10.0
Default Encoding: Cp1252
Language: en
Country: US
--></g></svg>